<svg xmlns="http://www.w3.org/2000/svg" viewBox="0 0 200 60"><defs><style>.cls-1{fill:#ff7800;}.cls-2{fill:#fff;}.cls-3{fill:#ffd6b2;}</style></defs><g id="Layer_2" data-name="Layer 2"><g id="Layer_1-2" data-name="Layer 1"><rect class="cls-1" width="200" height="60"/><path class="cls-2" d="M37.78,30h4.44a12.59,12.59,0,0,0-23.33-6.58v-6H14.45L10,21.85h4.45V42.6h4.44v-6A12.55,12.55,0,0,1,17,30a10.31,10.31,0,0,1,2.58-6.84l.12-.13a9.25,9.25,0,0,1,.7-.7l.15-.14a9.28,9.28,0,0,1,.85-.67l.07-.05a9.63,9.63,0,0,1,1-.63.05.05,0,0,0,0,0,9.73,9.73,0,0,1,1-.45l.31-.11c.26-.1.52-.18.79-.26s.25-.07.38-.09a7.43,7.43,0,0,1,.82-.16l.35-.05a9.55,9.55,0,0,1,1.2-.08,10.4,10.4,0,0,1,1.77.16l.22,0a1.63,1.63,0,0,1,.3.07,10.12,10.12,0,0,1,2.44.87h0c.28.14.55.3.82.46l.06.05c.25.16.48.32.71.5l.06,0c.23.18.45.37.67.56l0,.06a7.15,7.15,0,0,1,.61.62l.06.07c.19.22.37.43.54.66l.2.3c.11.16.23.32.33.48l.29.53.17.31A6.57,6.57,0,0,1,37,26a2.21,2.21,0,0,1,.12.27c.11.29.21.59.3.89v0a10.37,10.37,0,0,1,.35,1.94,7.75,7.75,0,0,1,0,.84"/><path class="cls-2" d="M58.49,33.7V17.4h-.74l-20,20H54.05V42.6h4.44V37.41h5.19V33.7Zm-4.44,0H46.63l7.42-7.4Z"/><path class="cls-3" d="M37.73,37.41l4-4a12.74,12.74,0,0,0,.47-3.4H37.78a8.13,8.13,0,1,1,0-.84A10.37,10.37,0,0,0,17,30,12.59,12.59,0,0,0,39.8,37.41Z"/><path class="cls-2" d="M79.39,34.77a25.18,25.18,0,0,1-7.6,7.62L70,40.68q10.81-6.09,11.13-21.6v-1.5h2.4v1.5c0,.36,0,.7,0,1h0A24.47,24.47,0,0,0,84.84,28q2.32,6.75,9.92,13l-2,1.45c-1.3-1.2-2.39-2.25-3.29-3.17a28.2,28.2,0,0,1-7.12-11.71,29.58,29.58,0,0,1-3,7.2"/><path class="cls-2" d="M102.41,23.41V21.09h8.67V17.55h2.51v3.54h10.83a1,1,0,0,1,.48.1c.28.18.42.58.42,1.22q0,5.72-.13,10.1c-.16,4.93-1.06,7.94-2.69,9s-4.3.92-8.41-.26l-.11-2.8q5.56,1.8,7.15.69a4,4,0,0,0,1.16-1.93,20.91,20.91,0,0,0,.55-5.06,74.83,74.83,0,0,0,0-8.57.31.31,0,0,0-.28-.18h-9a32.9,32.9,0,0,1-2.06,9.07,22.78,22.78,0,0,1-8,9.65l-1.87-1.77q8.8-5.22,9.44-16.95Z"/><path class="cls-2" d="M134.89,23.72,133,22.3q4.25-2.3,5.59-4.61l2.08.13a2.32,2.32,0,0,1-.18.39c1.23.92,2.48,1.77,3.77,2.56l-1.56,1.72c-1.14-.85-2.21-1.73-3.22-2.64a20.5,20.5,0,0,1-4.56,3.87M137.45,31h-3.69V28.92h3.69V26.15H134.5V24.07h8.36v2.08h-3.22v2.77h4V31h-4v7.65q2.82-.63,3.72-.87l.37,2.13a102.09,102.09,0,0,1-10.23,1.9l-.22-2.16c1.29-.16,2.68-.35,4.17-.58Zm-1.82,1.4a47.32,47.32,0,0,1,.77,5.54l-2.09.08a30,30,0,0,0-.74-5.38Zm7.73.24a41.67,41.67,0,0,1-.93,4.32l-1.87-.61a21.66,21.66,0,0,0,.9-4.19Zm12.92-.9,1.16,1.77a31.68,31.68,0,0,1-4.3,2.71,17.15,17.15,0,0,0,4.93,4.85l-1.9,1.45a17.3,17.3,0,0,1-3.32-3,14.63,14.63,0,0,1-3.43-9.15h-2.29v9.12A28.64,28.64,0,0,0,151,38.25l.64,2.11a39.9,39.9,0,0,1-8.12,2.14L143,40.34c.65-.13,1.3-.24,1.93-.35V18.69a.56.56,0,0,1,.63-.63h10.29a.57.57,0,0,1,.65.63v11a.62.62,0,0,1-.68.69h-4.22a16.75,16.75,0,0,0,.66,3.9,30.16,30.16,0,0,0,4-2.53m-1.95-8.52V20.64a.48.48,0,0,0-.53-.5h-6.15a.48.48,0,0,0-.52.53v2.55Zm-7.2,2.09v3H154a.31.31,0,0,0,.35-.35V25.31Z"/><path class="cls-2" d="M166.38,33.56l-1.87-1.48a20.71,20.71,0,0,0,5.88-7.8l2.08.95a38.7,38.7,0,0,1-2,3.66v13.5h-2.29V31.87c-.64.65-1.23,1.21-1.77,1.69m5.14-15.27a20.39,20.39,0,0,1-4.88,7.52l-1.95-1.35a17.09,17.09,0,0,0,4.69-7Zm1.95,9V25h16.16v2.29h-4.22V39.44a2.66,2.66,0,0,1-1.21,2.32q-2.19,1.43-8-.26l0-2.4a37.29,37.29,0,0,0,4,.95,3.33,3.33,0,0,0,2.55-.45,1,1,0,0,0,.24-.77V27.31ZM188.58,21H174.31V18.69h14.27Z"/></g></g></svg>