<?xml version="1.0" encoding="UTF-8" standalone="no"?>
<svg
   version="1.1"
   width="864.94666"
   height="386.42667"
   viewBox="0 0 864.94666 386.42667"
   xmlns="http://www.w3.org/2000/svg">
  <defs
     id="defs6" />
  <g
     id="g8"
     transform="matrix(1.3333333,0,0,-1.3333333,0,386.42667)">
    <g
       id="g10"
       transform="scale(0.1)">
      <path
         d="m 3007.1,750.859 v 0 c -68.36,-20.23 -130.69,-30.359 -190.99,-30.359 -130.68,0 -233.22,36.43 -311.62,109.289 -76.4,70.84 -114.59,159.891 -114.59,267.151 0,66.8 16.08,127.51 48.25,188.22 34.17,58.7 84.44,105.25 154.8,139.65 68.35,36.43 146.76,52.62 237.22,52.62 54.29,0 112.59,-8.09 176.93,-26.31 v -167.97 c -44.24,28.33 -90.48,42.5 -140.74,42.5 -64.33,0 -112.57,-20.24 -148.77,-60.73 -36.19,-40.47 -54.28,-97.14 -54.28,-174.04 0,-64.77 18.09,-115.368 54.28,-155.841 36.2,-38.461 84.44,-58.687 142.74,-58.687 44.24,0 92.49,14.148 146.77,40.468 v -165.961 0 0"
         style="fill:#3551a1;fill-opacity:1;fill-rule:nonzero;stroke:none"
         id="path12" />
      <path
         d="m 3103.6,1465.29 v 0 h 233.2 V 732.648 h -233.2 v 732.642 0 0"
         style="fill:#3551a1;fill-opacity:1;fill-rule:nonzero;stroke:none"
         id="path14" />
      <path
         d="m 3744.92,1244.68 v 0 c 96.49,0 176.91,-22.25 237.23,-66.78 62.32,-46.56 92.47,-109.29 92.47,-192.271 0,-76.91 -28.14,-141.668 -88.45,-190.238 -58.31,-48.582 -140.74,-74.891 -241.25,-74.891 -102.53,0 -182.95,24.289 -239.24,74.891 -56.29,48.57 -84.44,109.281 -84.44,184.168 0,78.931 28.15,143.701 88.45,192.271 60.32,48.57 138.73,72.85 235.23,72.85 z m 2.01,-127.5 v 0 c -28.15,0 -50.27,-12.14 -64.34,-34.41 -16.08,-22.25 -22.12,-54.64 -22.12,-99.161 0,-44.531 6.04,-76.91 20.11,-99.168 16.08,-22.269 36.19,-32.382 66.35,-32.382 28.14,0 50.26,10.113 66.33,32.382 14.09,22.258 20.11,54.637 20.11,99.168 0,44.521 -6.02,76.911 -20.11,99.161 -16.07,22.27 -36.18,34.41 -66.33,34.41 v 0"
         style="fill:#3551a1;fill-opacity:1;fill-rule:nonzero;stroke:none"
         id="path16" />
      <path
         d="m 4155.04,1234.57 v 0 h 231.19 V 922.898 c 0,-18.226 4.03,-32.398 12.07,-42.507 8.04,-10.121 18.1,-14.172 34.18,-14.172 16.08,0 30.16,6.082 42.21,16.203 12.07,12.137 18.1,24.277 18.1,40.476 v 311.672 h 235.22 V 732.648 h -201.04 l -22.12,50.59 c -22.11,-20.226 -48.25,-36.429 -74.38,-46.539 -26.14,-10.117 -54.29,-16.199 -84.44,-16.199 -54.29,0 -100.52,16.199 -136.71,50.609 -36.19,32.371 -54.28,72.852 -54.28,121.43 v 342.031 0 0"
         style="fill:#3551a1;fill-opacity:1;fill-rule:nonzero;stroke:none"
         id="path18" />
      <path
         d="m 5198.44,1465.29 v 0 h 235.22 V 732.648 h -207.07 l -22.11,58.692 c -22.12,-22.258 -46.24,-40.481 -70.38,-52.629 -26.13,-12.129 -54.27,-18.211 -84.43,-18.211 -72.37,0 -130.67,26.309 -174.9,78.941 -44.23,52.618 -66.35,111.309 -66.35,180.118 0,70.831 24.12,133.581 72.37,186.191 46.25,52.63 108.58,78.93 182.95,78.93 22.11,0 44.23,-2.01 66.35,-10.11 24.12,-6.07 46.24,-16.19 68.35,-30.35 v 261.07 0 z m 0,-386.56 v 0 c -10.05,10.12 -20.1,16.19 -32.16,22.26 -10.06,4.05 -22.11,6.07 -34.19,6.07 -26.13,0 -48.25,-10.12 -64.32,-32.38 -16.09,-22.27 -24.12,-50.6 -24.12,-87.032 0,-36.418 8.03,-64.75 24.12,-87.019 14.07,-22.258 36.18,-32.379 60.31,-32.379 22.11,0 40.2,8.102 52.26,24.289 12.08,16.18 18.1,34.402 18.1,58.691 v 127.5 0 0"
         style="fill:#3551a1;fill-opacity:1;fill-rule:nonzero;stroke:none"
         id="path20" />
      <path
         d="m 4919,299.539 v 0 c -12.07,-32.391 -22.11,-60.719 -30.16,-80.949 -8.05,22.25 -18.09,50.601 -30.16,80.949 l -66.33,180.121 h -60.33 L 4860.7,153.809 h 58.3 l 128.66,325.851 h -60.31 L 4919,299.539 v 0 0"
         style="fill:#3551a1;fill-opacity:1;fill-rule:nonzero;stroke:none"
         id="path22" />
      <path
         d="m 5337.16,422.988 v 0 c -10.05,20.242 -26.13,36.442 -46.24,46.551 -22.11,12.141 -50.26,18.223 -84.43,18.223 -8.05,0 -18.1,0 -28.15,-2.024 -8.04,0 -18.09,-2.027 -26.14,-4.058 -8.03,-2.02 -16.08,-4.039 -24.12,-6.059 -8.04,-2.019 -14.07,-4.051 -20.11,-6.082 l -2.01,-2.019 v -50.59 l 4.02,2.019 c 14.08,6.071 30.16,10.11 44.23,12.153 14.07,4.039 30.16,6.058 46.24,6.058 22.12,0 40.21,-4.051 52.28,-10.121 12.06,-8.09 22.12,-16.18 28.14,-26.309 2,-4.05 4.02,-10.121 4.02,-16.191 2.01,-8.09 2.01,-14.16 2.01,-24.289 v -18.211 c -10.05,4.051 -22.11,8.09 -36.18,10.121 -14.09,2.02 -30.16,4.051 -48.26,4.051 -18.09,0 -34.18,-2.031 -50.26,-6.082 -16.08,-6.07 -28.14,-12.141 -40.2,-22.25 -10.06,-8.109 -18.09,-18.219 -24.13,-32.391 -6.03,-12.136 -10.04,-26.297 -10.04,-42.5 0,-18.218 4.01,-32.379 8.02,-44.527 6.05,-14.16 14.08,-24.281 24.13,-34.402 10.06,-8.098 22.11,-16.2 34.19,-20.25 14.07,-4.028 30.15,-8.079 46.22,-8.079 12.07,0 22.12,2.02 34.19,4.051 10.04,2.008 20.11,6.059 28.15,10.11 10.05,4.05 18.09,10.121 24.12,14.168 6.02,4.05 10.05,10.121 14.07,14.16 l 6.04,-34.41 h 50.26 v 216.57 c 0,10.109 0,20.23 -2.01,28.32 -2.01,10.129 -4.03,18.231 -8.05,24.289 z m -50.26,-127.5 v 0 -60.718 c -2.01,-2.02 -6.03,-4.051 -10.05,-8.079 -6.03,-6.082 -12.06,-10.132 -20.11,-14.179 -6.02,-4.051 -16.08,-8.09 -26.13,-10.121 -8.04,-4.051 -20.1,-6.071 -30.16,-6.071 -8.03,0 -16.08,2.02 -24.12,4.051 -8.05,2.02 -14.08,6.07 -18.09,10.117 -6.04,4.051 -10.05,10.121 -14.07,16.203 -2.02,8.079 -4.03,16.18 -4.03,26.297 0,18.223 6.03,30.364 18.1,40.481 12.06,8.09 30.15,12.152 52.27,12.152 16.08,0 30.15,0 44.23,-4.062 12.06,-2.02 24.12,-4.039 32.16,-6.071 v 0"
         style="fill:#3551a1;fill-opacity:1;fill-rule:nonzero;stroke:none"
         id="path24" />
      <path
         d="m 5441.7,153.809 v 0 h 60.31 v 491.812 h -60.31 v -491.812 0 0"
         style="fill:#3551a1;fill-opacity:1;fill-rule:nonzero;stroke:none"
         id="path26" />
      <path
         d="m 5598.52,153.809 v 0 h 60.31 v 491.812 h -60.31 v -491.812 0 0"
         style="fill:#3551a1;fill-opacity:1;fill-rule:nonzero;stroke:none"
         id="path28" />
      <path
         d="m 5982.5,449.309 v 0 c -12.06,14.16 -26.13,22.261 -42.21,28.332 -16.09,6.07 -34.17,10.121 -52.27,10.121 -20.12,0 -40.22,-4.051 -58.31,-10.121 -18.1,-8.102 -34.18,-20.243 -48.25,-34.411 -14.07,-14.171 -26.12,-32.371 -34.17,-54.628 -8.05,-20.25 -12.06,-46.563 -12.06,-76.911 0,-28.339 4.01,-54.652 12.06,-74.902 8.05,-22.25 22.11,-40.469 36.18,-52.609 16.08,-14.168 34.18,-22.258 56.3,-28.34 20.1,-6.059 42.22,-10.11 66.35,-10.11 20.09,0 38.18,2.02 56.28,6.059 18.09,2.02 32.16,8.102 44.23,12.152 l 2.02,2.02 v 48.578 h -4.03 c -14.07,-6.078 -28.15,-10.117 -44.23,-12.148 -14.08,-4.051 -30.15,-4.051 -48.25,-4.051 -16.09,0 -32.17,2.031 -46.24,6.082 -14.07,4.039 -26.13,10.117 -38.19,18.219 -10.06,8.078 -18.1,20.23 -24.13,32.371 -6.04,14.179 -10.06,30.359 -10.06,48.578 h 227.19 v 2.031 c 2,8.078 2,12.129 2,14.149 v 6.082 c 0,28.328 -4.02,52.617 -12.06,72.847 -6.03,20.25 -16.09,38.461 -28.15,50.61 z M 5884,437.16 v 0 c 12.05,0 24.12,-2.019 32.16,-6.058 10.05,-4.063 18.09,-12.153 24.13,-18.223 6.02,-8.098 10.05,-18.219 14.08,-28.34 4.01,-10.117 4.01,-20.238 4.01,-30.359 h -160.84 c 0,10.121 4.03,20.242 8.05,30.359 4.02,10.121 12.06,20.242 18.09,26.32 8.04,8.09 18.09,14.161 28.15,20.243 10.05,4.039 20.1,6.058 32.17,6.058 v 0"
         style="fill:#3551a1;fill-opacity:1;fill-rule:nonzero;stroke:none"
         id="path30" />
      <path
         d="m 6320.26,479.66 v 0 l -104.54,-246.91 -100.53,244.891 -2.01,2.019 h -60.31 L 6185.56,163.941 6115.19,4.05859 6113.18,0.0117188 h 60.31 L 6378.55,475.621 l 2.01,4.039 h -60.3 v 0 0"
         style="fill:#3551a1;fill-opacity:1;fill-rule:nonzero;stroke:none"
         id="path32" />
      <path
         d="m 6440.88,1283.15 c -28.14,54.63 -68.36,105.24 -116.61,147.73 -50.25,42.51 -106.54,76.9 -170.89,99.17 -10.05,4.05 -20.1,8.09 -30.14,12.15 6.03,28.33 10.04,58.69 10.04,89.05 0,50.59 -10.04,101.19 -30.15,147.74 -34.18,82.97 -94.48,153.82 -176.92,204.42 -82.43,52.61 -180.94,80.94 -283.46,80.94 -74.4,0 -144.76,-14.16 -211.11,-42.5 -16.08,42.5 -36.17,85 -64.32,123.46 -64.34,95.12 -154.81,176.08 -263.37,230.72 -112.57,58.69 -241.24,89.05 -371.93,89.05 -102.52,0 -203.04,-18.21 -295.52,-54.64 -90.47,-34.41 -170.88,-85.01 -239.24,-147.75 -44.23,-40.48 -82.42,-87.02 -112.58,-135.6 -94.5,56.67 -207.08,89.05 -325.69,89.05 -34.18,0 -68.36,-2.02 -102.53,-8.09 -8.04,121.43 -50.27,238.82 -122.64,342.04 -80.41,113.33 -193,206.43 -327.69,267.14 -58.3,26.32 -118.62,48.57 -182.95,60.73 -66.35,14.15 -134.7,20.23 -201.04,20.23 -98.51,0 -195.01,-12.15 -287.49,-42.5 -88.46,-28.33 -170.89,-68.82 -243.26,-121.44 -84.43,-60.71 -152.79,-133.57 -205.07,-218.57 -30.14,-48.58 -52.26,-99.16 -70.36,-151.79 -42.22,10.11 -86.45,14.16 -128.67,14.16 -72.37,0 -142.73,-12.14 -209.07,-36.42 -64.33,-24.29 -120.63,-58.69 -168.89,-101.2 -50.25,-44.52 -88.46,-95.12 -114.59,-149.76 -28.14,-58.7 -42.22,-121.44 -42.22,-184.17 0,-23.82 2.06,-46.64 5.92,-69.19 30.09,6.89 61.4,10.56 93.58,10.56 82.72,0 159.75,-24.14 224.64,-65.6 -3.83,40.02 -1,80.68 9.59,120.18 8.05,26.31 20.1,52.62 38.21,78.93 22.1,38.44 52.26,70.83 86.44,95.12 20.1,16.19 42.22,28.34 66.34,40.48 28.14,12.14 58.3,22.25 90.47,26.3 22.12,4.05 44.23,6.07 68.35,4.05 68.36,-2.02 138.72,-32.38 184.96,-84.99 28.15,291.43 251.3,566.68 538.79,625.37 34.18,6.07 70.36,8.09 104.55,8.09 98.5,0 192.99,-22.26 277.43,-68.81 72.38,-36.43 136.71,-89.06 188.97,-153.81 16.1,-20.24 32.17,-42.51 48.26,-66.79 104.54,-157.86 110.56,-356.2 98.51,-540.37 40.21,60.71 106.56,97.14 174.91,111.3 24.13,4.06 48.25,6.09 72.37,6.09 34.18,0 70.36,-4.05 102.54,-14.18 26.13,-6.07 52.26,-16.19 76.39,-28.34 84.43,-40.46 148.77,-119.4 162.85,-214.53 28.13,133.59 104.53,253 199.03,348.11 22.11,24.3 48.24,44.53 74.37,62.75 28.15,20.23 58.31,36.42 90.48,50.59 32.17,14.17 64.33,26.31 98.51,32.38 36.19,8.1 70.36,12.14 106.55,12.14 182.94,2.03 361.88,-101.19 450.32,-269.17 54.29,-101.2 96.51,-212.5 76.4,-327.87 40.21,74.89 108.57,131.56 184.97,165.96 26.13,10.12 52.27,18.21 80.41,22.27 54.28,6.07 110.58,-2.03 162.84,-30.36 18.1,-8.1 36.19,-18.22 52.28,-30.36 16.08,-12.14 32.17,-26.31 44.23,-42.51 12.06,-12.13 20.1,-24.28 30.14,-38.45 86.46,-137.62 30.17,-313.7 -76.38,-422.99 60.31,4.05 118.61,20.24 178.92,10.12 22.11,-4.05 44.23,-10.12 64.34,-20.24 38.19,-16.19 74.38,-40.48 104.54,-70.83 30.15,-30.36 54.28,-64.76 72.37,-103.22 18.1,-44.52 28.15,-91.071 28.15,-139.641 0,-89.051 -32.17,-172.027 -94.5,-236.809 -44.22,-48.558 -102.53,-80.941 -166.85,-95.109 28.14,0 56.29,0 84.43,0 16.09,2.027 32.16,2.027 48.25,2.027 48.26,4.043 94.49,8.09 140.73,16.18 10.05,2.031 20.1,4.051 30.16,6.082 66.34,18.211 124.64,60.719 176.92,99.172 10.05,8.09 18.08,16.188 26.13,22.246 98.51,91.094 152.79,210.492 152.79,335.982 0,68.8 -16.08,135.59 -46.24,198.34"
         style="fill:#5192cb;fill-opacity:1;fill-rule:nonzero;stroke:none"
         id="path34" />
      <path
         d="m 1195.72,1418.74 c -30.17,24.28 -62.33,34.4 -100.53,28.33 -44.23,-4.05 -76.4,-22.26 -98.506,-52.62 -20.106,-30.36 -28.145,-74.88 -26.145,-129.53 l 277.441,34.41 -2,28.33 c -6.04,38.46 -22.13,68.82 -50.26,91.08"
         style="fill:#e88321;fill-opacity:1;fill-rule:nonzero;stroke:none"
         id="path36" />
      <path
         d="m 1105.24,1003.84 c 42.22,-22.25 94.49,-30.36 156.82,-22.25 48.25,6.058 92.47,20.24 130.67,42.49 36.19,22.26 86.45,58.69 146.76,111.31 l 32.17,-259.038 C 1443,799.441 1320.35,752.879 1203.75,738.711 1050.96,718.48 922.293,744.789 817.758,813.609 713.215,882.422 652.898,979.559 636.82,1105.04 c -16.086,121.44 16.078,230.72 94.489,327.87 80.414,97.14 195.007,153.81 345.791,172.03 132.68,18.21 243.25,-4.05 333.73,-66.8 88.46,-62.73 140.73,-155.83 156.81,-277.26 l 8.04,-68.81 -568.95,-72.86 c 22.12,-54.65 56.3,-91.08 98.51,-115.37 z m 760.07,364.37 c 2.99,20.17 4.58,40.79 4.58,61.79 0,230.78 -187.09,417.87 -417.87,417.87 -101.07,0 -193.76,-35.9 -266.02,-95.62 -87.78,134.27 -239.348,223.05 -411.73,223.05 -271.547,0 -491.68,-220.14 -491.68,-491.69 0,-42.03 5.301,-82.82 15.226,-121.76 C 126.457,1317.05 0,1161.22 0,975.82 0,755.449 178.641,576.809 399.012,576.809 H 1842.59 c 218.73,0 396.05,177.312 396.05,396.05 0,211.101 -165.18,383.571 -373.33,395.351"
         style="fill:#e88321;fill-opacity:1;fill-rule:nonzero;stroke:none"
         id="path38" />
      <path
         d="m 970.539,1264.92 c -2,54.65 6.039,99.17 26.145,129.53 22.106,30.36 54.276,48.57 98.506,52.62 38.2,6.07 70.36,-4.05 100.53,-28.33 28.13,-22.26 44.22,-52.62 50.26,-91.08 l 2,-28.33 z m 597.101,-4.04 c -16.08,121.43 -68.35,214.53 -156.81,277.26 -90.48,62.75 -201.05,85.01 -333.73,66.8 -150.784,-18.22 -265.377,-74.89 -345.791,-172.03 -78.411,-97.15 -110.575,-206.43 -94.489,-327.87 16.078,-125.481 76.395,-222.618 180.938,-291.431 104.535,-68.82 233.202,-95.129 385.992,-74.898 116.6,14.168 239.25,60.73 367.91,137.641 l -32.17,259.038 c -60.31,-52.62 -110.57,-89.05 -146.76,-111.31 -38.2,-22.25 -82.42,-36.432 -130.67,-42.49 -62.33,-8.11 -114.6,0 -156.82,22.25 -42.21,24.29 -76.39,60.72 -98.51,115.37 l 568.95,72.86 -8.04,68.81"
         style="fill:#ffffff;fill-opacity:1;fill-rule:nonzero;stroke:none"
         id="path40" />
    </g>
  </g>
</svg>
