<?xml version="1.0" encoding="UTF-8" standalone="no"?>
<!-- Created with Inkscape (http://www.inkscape.org/) -->

<svg
   version="1.1"
   id="svg2"
   width="533.33331"
   height="200"
   viewBox="0 0 533.33331 200"
   sodipodi:docname="智慧高軟LOGO_2023.ai"
   xmlns:inkscape="http://www.inkscape.org/namespaces/inkscape"
   xmlns:sodipodi="http://sodipodi.sourceforge.net/DTD/sodipodi-0.dtd"
   xmlns="http://www.w3.org/2000/svg"
   xmlns:svg="http://www.w3.org/2000/svg">
  <defs
     id="defs6">
    <clipPath
       clipPathUnits="userSpaceOnUse"
       id="clipPath16">
      <path
         d="M 0,150 H 400 V 0 H 0 Z"
         id="path14" />
    </clipPath>
  </defs>
  <sodipodi:namedview
     id="namedview4"
     pagecolor="#ffffff"
     bordercolor="#000000"
     borderopacity="0.25"
     inkscape:showpageshadow="2"
     inkscape:pageopacity="0.0"
     inkscape:pagecheckerboard="0"
     inkscape:deskcolor="#d1d1d1" />
  <g
     id="g8"
     inkscape:groupmode="layer"
     inkscape:label="智慧高軟LOGO_2023"
     transform="matrix(1.3333333,0,0,-1.3333333,0,200)">
    <g
       id="g10">
      <g
         id="g12"
         clip-path="url(#clipPath16)">
        <path
           d="m 169.981,93.307 h -9.319 V 81.811 h 9.319 z m 8.231,6.802 V 72.151 h -8.231 v 2.858 h -9.319 v -2.858 h -8.096 v 27.958 z M 160.525,54.601 h -23.333 v -4.286 h 23.333 z m 0,9.864 h -23.333 v -4.354 h 23.333 z m -17.618,5.713 c -2.381,1.973 -4.966,4.831 -6.87,7.62 -1.769,-2.721 -3.946,-5.374 -6.123,-7.62 z m 25.781,0 V 42.833 h -8.163 v 1.905 h -23.332 v -1.905 h -8.231 v 26.393 c -1.429,-1.428 -3.061,-2.857 -4.558,-4.082 -1.496,1.701 -3.673,4.014 -6.054,6.395 4.421,2.925 8.163,5.85 11.224,10.272 h -11.088 v 6.735 h 13.469 v 4.626 h -4.149 c -0.953,-1.158 -2.177,-2.45 -3.334,-3.538 -1.02,1.02 -3.741,3.061 -5.578,4.421 3.129,3.062 5.85,6.327 8.912,11.361 l 5.918,-1.973 c 1.156,-0.341 1.632,-0.816 1.632,-1.293 0,-0.544 -0.748,-1.156 -2.176,-1.564 -0.204,-0.136 -0.273,-0.409 -0.409,-0.613 h 16.666 v -6.801 h -9.319 v -4.626 h 11.564 v -6.735 h -9.183 c 2.721,-3.13 5.51,-4.967 8.775,-6.871 -2.041,-1.633 -4.082,-3.741 -5.102,-4.762 z"
           style="fill:#2659a0;fill-opacity:1;fill-rule:nonzero;stroke:none"
           id="path18" />
        <g
           id="g20"
           transform="translate(200.5908,58.8864)">
          <path
             d="m 0,0 h 5.85 c 2.177,0 2.925,-0.408 2.925,-1.088 0,-0.476 -0.408,-1.089 -0.884,-1.838 v -4.081 c 0,-1.292 1.904,-1.36 6.462,-1.36 9.524,0.204 10.476,0.34 11.292,6.054 2.653,-1.292 4.354,-2.312 7.483,-3.197 -2.381,-9.863 -4.558,-9.863 -19.795,-9.863 C 1.429,-15.373 0,-13.945 0,-9.592 Z m -3.129,-2.244 c 0.952,-0.477 1.36,-0.953 1.36,-1.497 0,-0.613 -0.612,-1.225 -1.632,-1.429 -1.429,-2.857 -3.333,-6.666 -5.918,-9.455 -1.565,1.359 -3.537,2.652 -5.918,4.081 2.585,2.857 5.237,7.075 6.734,10.34 z m 19.115,44.76 h 10.067 v 3.401 h 6.395 c 1.837,0 2.585,-0.408 2.585,-1.021 0,-0.476 -0.34,-1.02 -0.952,-1.564 V 42.516 H 45.305 V 37.55 H 34.081 v -2.177 h 9.591 V 30.476 H 34.081 V 28.162 H 45.645 V 23.265 H 34.081 v -2.994 h 4.217 v -6.53 h 7.755 V 6.938 h -7.755 v -6.19 h -1.156 c 2.585,-1.973 5.441,-4.897 8.026,-7.482 l -5.441,-5.17 c -2.177,2.857 -5.442,6.463 -9.388,10.067 L 33.74,0.748 H 18.707 c 1.088,-1.292 2.109,-2.381 3.265,-4.217 L 16.53,-7.482 c -1.496,2.516 -3.061,4.556 -5.238,7.142 l 2.041,1.088 H -7.755 V 5.51 h 38.094 v 2.449 h -45.508 v 4.762 h 45.508 v 2.516 H -7.755 v 5.034 h 4.014 v 1.497 c -1.293,-0.136 -4.558,-0.408 -7.755,-0.748 -0.545,-1.088 -1.156,-1.769 -1.633,-1.769 -0.476,0 -0.884,0.612 -1.088,1.905 l -1.02,6.122 c 3.673,0.136 7.346,0.272 11.496,0.476 v 2.585 h -9.524 v 5.034 h 9.524 v 2.177 h -11.225 v 5.034 h 11.225 v 3.469 h 6.394 c 1.837,0 2.585,-0.272 2.585,-0.817 0,-0.408 -0.341,-0.952 -1.02,-1.632 v -1.02 H 14.49 V 37.55 H 4.218 v -2.177 h 8.571 V 30.339 H 4.218 v -2.041 c 2.312,0.068 6.394,0.409 10.612,0.749 V 23.469 C 11.632,23.196 8.503,22.925 4.218,22.517 v -2.246 h 21.835 v 2.994 H 16.53 v 4.897 h 9.523 v 2.314 H 17.89 v 4.897 h 8.163 V 37.55 H 15.986 Z"
             style="fill:#2659a0;fill-opacity:1;fill-rule:nonzero;stroke:none"
             id="path22" />
        </g>
        <path
           d="m 289.77,60.179 h -11.904 v -5.034 h 11.904 z m 4.422,24.353 h -20.611 v -2.789 h 20.611 z m 3.401,-18.98 v -17.89 h -7.823 v 2.041 H 277.866 V 46.71 h -7.755 v 18.842 z m -31.495,24.421 h 35.849 V 76.369 h -35.849 z m 45.508,-15.849 v -23.06 c 0,-5.375 -1.768,-7.279 -10.408,-8.3 -0.612,2.177 -1.7,5.17 -3.129,8.64 3.401,0.136 5.646,0.136 5.646,2.721 v 13.673 h -39.25 V 43.173 h -7.755 v 30.951 z m 1.973,24.353 v -6.326 h -59.25 v 6.326 h 25.578 v 6.122 h 6.394 c 2.041,0 2.721,-0.476 2.721,-1.089 0,-0.543 -0.544,-1.156 -1.021,-1.631 v -3.402 z"
           style="fill:#2659a0;fill-opacity:1;fill-rule:nonzero;stroke:none"
           id="path24" />
        <g
           id="g26"
           transform="translate(379.1538,95.0759)">
          <path
             d="m 0,0 3.197,-3.266 c -0.884,-5.578 -2.585,-12.176 -4.285,-15.985 -2.517,0.952 -5.443,2.177 -7.143,2.925 1.225,2.516 2.176,5.646 2.789,9.523 h -11.836 c -2.041,-5.441 -3.538,-8.503 -5.783,-11.36 -2.244,1.837 -4.013,3.197 -6.598,4.898 3.605,4.354 7.143,13.197 8.299,22.449 l 6.122,-1.429 c 1.701,-0.477 2.381,-1.021 2.381,-1.633 0,-0.544 -0.612,-1.089 -1.565,-1.36 C -14.83,3.129 -15.238,1.496 -15.578,0 Z m -10.816,-10.612 c 1.564,-0.272 2.108,-0.613 2.108,-1.157 0,-0.544 -0.476,-1.293 -1.156,-2.312 0,-0.748 -0.068,-1.429 -0.068,-2.109 0,-13.946 5.782,-23.673 13.605,-29.727 -1.632,-1.429 -4.422,-4.421 -5.986,-6.19 -4.286,4.013 -8.503,9.795 -11.428,16.802 -2.109,-6.871 -5.306,-12.517 -9.796,-17.074 -2.041,1.768 -4.489,4.081 -7.142,5.918 7.755,5.781 13.129,16.258 13.264,36.598 z m -26.326,-10.68 h -2.449 v -4.558 h 2.449 z m 0.068,9.659 h -2.517 v -4.285 h 2.517 z m -9.183,-9.591 h -2.517 v -4.626 h 2.517 z m 0,9.591 h -2.517 v -4.285 h 2.517 z m 17.414,15.714 v -6.666 h -10 v -3.333 h 8.844 v -25.645 h -8.844 v -3.742 h 10.885 v -6.598 h -10.885 v -9.796 h -7.89 v 9.796 h -10.68 v 6.598 h 10.68 v 3.742 h -8.912 v 25.645 h 8.912 v 3.333 h -10.68 v 6.666 h 10.68 v 5.103 h 6.462 c 1.769,0 2.381,-0.477 2.381,-1.021 0,-0.476 -0.408,-1.089 -0.953,-1.564 V 4.081 Z"
             style="fill:#2659a0;fill-opacity:1;fill-rule:nonzero;stroke:none"
             id="path28" />
        </g>
        <g
           id="g30"
           transform="translate(90.4033,52.6677)">
          <path
             d="m 0,0 c -0.231,-0.749 -0.585,-1.452 -1.018,-2.114 -0.466,-0.647 -1.047,-1.224 -1.697,-1.756 -0.684,-0.508 -1.457,-0.946 -2.31,-1.309 -0.876,-0.335 -1.811,-0.611 -2.808,-0.795 -1.997,-0.36 -4.16,-0.401 -6.334,-0.285 -0.933,0.067 -1.868,0.169 -2.802,0.292 1.062,1.607 1.95,3.265 2.72,4.938 2.163,4.756 3.296,9.691 3.674,14.637 0.797,0.785 1.582,1.576 2.346,2.377 0.722,0.775 1.426,1.558 2.114,2.349 0.973,-1.288 1.88,-2.601 2.69,-3.943 C -1.558,11.287 -0.129,8.019 0.307,4.748 0.486,3.121 0.454,1.5 0,0 m -28.667,-12.131 c -0.865,-0.406 -1.776,-0.715 -2.703,-0.952 -0.936,-0.209 -1.888,-0.308 -2.847,-0.338 -0.961,0.006 -1.918,0.108 -2.862,0.306 -0.934,0.23 -1.854,0.533 -2.73,0.934 -1.751,0.81 -3.319,1.933 -4.748,3.174 -0.597,0.544 -1.162,1.114 -1.707,1.699 2.259,0.571 4.442,1.27 6.556,2.042 2.017,0.745 3.964,1.572 5.855,2.458 1.811,-0.922 3.673,-1.796 5.619,-2.579 1.854,-0.748 3.768,-1.438 5.759,-2.009 -0.483,-0.53 -0.984,-1.048 -1.519,-1.541 -1.4,-1.247 -2.944,-2.376 -4.673,-3.194 m -25.351,6.467 c -2.159,-0.136 -4.311,-0.111 -6.301,0.231 -0.994,0.174 -1.927,0.441 -2.805,0.767 -0.857,0.352 -1.624,0.789 -2.33,1.279 -0.674,0.516 -1.255,1.098 -1.736,1.741 -0.445,0.661 -0.811,1.365 -1.055,2.116 -0.478,1.505 -0.532,3.135 -0.38,4.774 0.416,3.287 1.689,6.605 3.4,9.802 0.679,1.245 1.429,2.474 2.243,3.683 1.023,-1.075 2.086,-2.125 3.168,-3.157 0.993,-0.933 2.019,-1.843 3.059,-2.743 0.104,-1.077 0.224,-2.154 0.374,-3.23 0.543,-3.518 1.307,-7.048 2.696,-10.494 0.609,-1.516 1.315,-3.024 2.186,-4.489 -0.838,-0.117 -1.678,-0.217 -2.519,-0.28 M -65.573,25.2 c -1.74,3.19 -3.056,6.501 -3.507,9.803 -0.191,1.645 -0.174,3.291 0.276,4.829 0.231,0.769 0.591,1.492 1.01,2.189 0.462,0.676 1.036,1.3 1.716,1.86 0.713,0.534 1.498,1.019 2.386,1.414 0.905,0.372 1.879,0.672 2.909,0.893 2.066,0.428 4.311,0.527 6.554,0.427 1.06,-0.055 2.119,-0.159 3.173,-0.299 -0.004,-0.006 -0.008,-0.012 -0.012,-0.018 -1.058,-1.637 -1.873,-3.342 -2.579,-5.058 -1.393,-3.441 -2.156,-6.97 -2.704,-10.485 -0.173,-1.19 -0.301,-2.38 -0.41,-3.57 -0.937,-0.817 -1.863,-1.643 -2.766,-2.484 -1.217,-1.158 -2.405,-2.341 -3.544,-3.554 -0.913,1.329 -1.752,2.68 -2.502,4.053 m 20.904,24.232 c 1.408,1.264 2.963,2.42 4.726,3.267 0.883,0.42 1.817,0.74 2.766,1.009 0.963,0.232 1.953,0.368 2.96,0.401 1.005,-0.002 2.015,-0.077 3.013,-0.271 0.99,-0.22 1.959,-0.526 2.894,-0.919 1.865,-0.798 3.543,-1.925 5.037,-3.19 0.697,-0.604 1.349,-1.242 1.963,-1.903 -0.008,-0.002 -0.017,-0.004 -0.025,-0.006 -2.285,-0.593 -4.461,-1.365 -6.57,-2.202 -2.404,-0.965 -4.68,-2.067 -6.885,-3.236 -1.864,0.841 -3.766,1.635 -5.726,2.351 -2.118,0.784 -4.289,1.496 -6.536,2.084 -0.028,0.008 -0.058,0.014 -0.087,0.022 0.768,0.903 1.585,1.773 2.47,2.593 m 34.176,-29.254 c -0.059,1.226 -0.164,2.449 -0.294,3.67 0.169,-0.179 0.346,-0.355 0.513,-0.535 1.227,-1.347 2.402,-2.721 3.502,-4.123 -1.157,-1.304 -2.394,-2.57 -3.702,-3.794 0.065,1.597 0.058,3.193 -0.019,4.782 m -22.799,21.509 c 2.091,0.85 4.232,1.62 6.413,2.296 2.376,0.737 4.803,1.367 7.251,1.842 1.225,-1.602 2.262,-3.304 3.136,-5.044 1.838,-3.74 2.96,-7.657 3.529,-11.622 -1.454,1.163 -2.956,2.288 -4.502,3.371 -1.729,1.212 -3.502,2.386 -5.33,3.507 -1.844,1.107 -3.715,2.184 -5.626,3.219 -1.593,0.844 -3.22,1.651 -4.871,2.431 m -22.73,-13.868 c 0.83,4.421 2.388,8.751 4.634,12.812 0.989,1.787 2.115,3.525 3.399,5.166 2.37,-0.481 4.7,-1.131 6.951,-1.896 1.79,-0.62 3.524,-1.323 5.221,-2.074 -1.301,-0.711 -2.584,-1.436 -3.838,-2.182 -3.67,-2.217 -7.127,-4.6 -10.453,-7.081 -2.047,-1.525 -4.011,-3.112 -5.914,-4.745 m -0.807,-14.147 c -1.977,1.98 -3.765,4.061 -5.347,6.217 1.57,2.194 3.356,4.313 5.332,6.334 -0.156,-2.015 -0.241,-4.03 -0.255,-6.045 -0.016,-2.169 0.085,-4.338 0.27,-6.506 m 5.479,-13.937 c -2.176,3.925 -3.705,8.102 -4.561,12.369 1.779,-1.507 3.61,-2.977 5.491,-4.41 3.291,-2.507 6.779,-4.868 10.435,-7.097 1.017,-0.608 2.051,-1.202 3.098,-1.786 -1.424,-0.591 -2.863,-1.158 -4.336,-1.663 -2.32,-0.793 -4.712,-1.474 -7.133,-1.982 -1.114,1.46 -2.106,2.996 -2.994,4.569 m 32.739,9.093 c -1.702,-1.18 -3.446,-2.321 -5.242,-3.41 -1.808,-1.078 -3.649,-2.117 -5.53,-3.108 -1.986,-1.026 -4.013,-2.002 -6.087,-2.908 -5.329,2.329 -10.301,5.192 -14.684,8.494 -2.108,1.577 -4.082,3.257 -5.909,5.021 -0.434,2.404 -0.658,4.834 -0.659,7.261 -0.011,2.239 0.17,4.479 0.533,6.701 1.95,1.931 4.07,3.767 6.347,5.484 4.57,3.47 9.8,6.45 15.414,8.837 5.732,-2.691 10.911,-6.063 15.505,-9.769 1.565,-1.283 3.08,-2.597 4.525,-3.95 0.607,-0.58 1.201,-1.166 1.79,-1.753 0.121,-1.852 0.136,-3.707 0.052,-5.55 -0.096,-1.741 -0.258,-3.478 -0.506,-5.204 -0.114,-0.734 -0.244,-1.464 -0.38,-2.194 -1.652,-1.374 -3.381,-2.693 -5.169,-3.952 m -2.158,-14.161 c -2.158,0.438 -4.301,0.996 -6.405,1.636 -1.68,0.519 -3.329,1.108 -4.957,1.733 5.524,2.762 10.514,6.072 14.978,9.693 1.109,0.898 2.181,1.819 3.236,2.751 -0.049,-0.216 -0.088,-0.435 -0.139,-0.651 -0.84,-3.397 -1.937,-6.757 -3.529,-9.959 -0.897,-1.797 -1.949,-3.554 -3.184,-5.203 m 6.898,51.959 c 2.183,0.145 4.366,0.132 6.408,-0.208 1.019,-0.174 1.979,-0.444 2.903,-0.76 0.898,-0.349 1.726,-0.781 2.469,-1.294 0.709,-0.537 1.352,-1.129 1.876,-1.798 0.493,-0.682 0.892,-1.416 1.184,-2.192 0.57,-1.558 0.7,-3.249 0.568,-4.938 -0.312,-3.398 -1.704,-6.774 -3.601,-9.942 -0.829,-1.36 -1.758,-2.682 -2.764,-3.971 -1.983,2.223 -4.177,4.328 -6.53,6.318 -0.173,0.979 -0.36,1.957 -0.572,2.931 -0.81,3.493 -1.866,6.957 -3.412,10.319 -0.763,1.682 -1.63,3.344 -2.666,4.956 -0.013,0.02 -0.029,0.041 -0.041,0.061 1.39,0.23 2.784,0.411 4.178,0.518 M 4.21,5.07 c -0.642,3.738 -2.336,7.207 -4.432,10.463 -1.167,1.796 -2.48,3.524 -3.908,5.188 1.135,1.425 2.205,2.88 3.171,4.38 1.038,1.595 1.985,3.232 2.764,4.924 0.799,1.689 1.422,3.435 1.799,5.24 0.346,1.804 0.43,3.681 -0.035,5.562 -0.234,0.941 -0.652,1.864 -1.196,2.759 -0.591,0.88 -1.33,1.719 -2.247,2.449 -0.938,0.712 -2.009,1.322 -3.166,1.814 -1.168,0.466 -2.408,0.81 -3.668,1.033 -2.52,0.439 -5.071,0.462 -7.526,0.246 -1.822,-0.169 -3.595,-0.473 -5.318,-0.866 -0.641,0.837 -1.336,1.656 -2.101,2.448 -1.448,1.461 -3.15,2.832 -5.243,3.914 -1.048,0.541 -2.211,0.972 -3.435,1.314 -1.243,0.307 -2.553,0.507 -3.886,0.535 -1.332,0.004 -2.662,-0.136 -3.94,-0.406 -1.265,-0.292 -2.465,-0.71 -3.563,-1.223 -2.195,-1.031 -4.02,-2.375 -5.553,-3.837 -1.13,-1.09 -2.099,-2.25 -2.948,-3.446 -1.239,0.25 -2.499,0.46 -3.782,0.612 -2.395,0.261 -4.886,0.324 -7.381,-0.027 -1.248,-0.175 -2.475,-0.491 -3.662,-0.901 -1.167,-0.445 -2.281,-1.002 -3.249,-1.693 -0.945,-0.707 -1.754,-1.515 -2.406,-2.386 -0.62,-0.881 -1.077,-1.815 -1.371,-2.764 -0.584,-1.899 -0.614,-3.822 -0.327,-5.673 0.302,-1.851 0.928,-3.635 1.735,-5.351 0.788,-1.722 1.812,-3.361 2.922,-4.951 1.09,-1.542 2.306,-3.019 3.6,-4.448 -1.19,-1.333 -2.312,-2.705 -3.324,-4.134 -1.126,-1.585 -2.166,-3.222 -2.973,-4.944 -0.83,-1.713 -1.466,-3.502 -1.791,-5.36 -0.325,-1.856 -0.333,-3.794 0.223,-5.728 0.282,-0.965 0.732,-1.918 1.326,-2.835 0.633,-0.906 1.434,-1.754 2.386,-2.506 0.975,-0.735 2.107,-1.339 3.304,-1.827 1.215,-0.457 2.482,-0.805 3.767,-1.027 2.571,-0.438 5.155,-0.448 7.633,-0.223 1.319,0.128 2.61,0.316 3.88,0.547 0.694,-0.916 1.458,-1.809 2.325,-2.661 1.512,-1.485 3.324,-2.86 5.532,-3.93 1.105,-0.533 2.318,-0.967 3.598,-1.299 1.298,-0.303 2.661,-0.476 4.039,-0.501 1.379,0 2.746,0.177 4.051,0.469 1.288,0.325 2.51,0.753 3.626,1.281 2.229,1.06 4.066,2.43 5.608,3.91 0.811,0.793 1.548,1.614 2.229,2.455 1.35,-0.278 2.729,-0.503 4.141,-0.643 2.463,-0.245 5.035,-0.252 7.6,0.168 1.281,0.213 2.546,0.552 3.763,0.999 1.202,0.478 2.328,1.081 3.325,1.798 0.976,0.736 1.777,1.589 2.425,2.491 0.606,0.916 1.068,1.871 1.363,2.838 0.581,1.938 0.594,3.885 0.296,5.753"
             style="fill:#2659a0;fill-opacity:1;fill-rule:nonzero;stroke:none"
             id="path32" />
        </g>
        <g
           id="g34"
           transform="translate(48.0962,90.1599)">
          <path
             d="m 0,0 3.971,2.839 -0.438,-17.508 12.361,13.964 3.618,-2.17 -8.028,-11.784 13.299,-14.332 -11.859,-6.192 -5.593,16.478 -3.798,-4.668 -1.211,-13.523 -6.598,4.792 z"
             style="fill:#2659a0;fill-opacity:1;fill-rule:nonzero;stroke:none"
             id="path36" />
        </g>
      </g>
    </g>
  </g>
</svg>
