<svg width="1068" height="390" viewBox="0 0 1068 390" fill="none" xmlns="http://www.w3.org/2000/svg">
<g clip-path="url(#clip0_5_307)">
<mask id="mask0_5_307" style="mask-type:luminance" maskUnits="userSpaceOnUse" x="0" y="0" width="1068" height="390">
<path d="M0 0H1068V390H0V0Z" fill="white"/>
</mask>
<g mask="url(#mask0_5_307)">
<path d="M45.8418 274.444C31.428 274.444 20.4733 270.632 12.9751 263.004C5.4743 255.379 1.72455 244.231 1.72455 229.564C1.72455 215.149 5.64226 203.961 13.4777 195.997C21.3118 188.036 32.2238 184.055 46.2177 184.055C52.9214 184.055 59.2052 184.933 65.0718 186.693C66.4114 187.115 67.3112 187.68 67.7738 188.392C68.2336 189.104 68.4656 190.257 68.4656 191.849V202.409C68.4656 204.672 67.5858 205.804 65.8249 205.804C65.405 205.804 64.3586 205.595 62.683 205.175C58.5773 204.252 54.4703 203.792 50.366 203.792C42.6559 203.792 36.8333 205.824 32.8956 209.889C28.9566 213.955 26.9877 219.968 26.9877 227.929V230.695C26.9877 238.489 28.8926 244.441 32.7063 248.547C36.5187 252.653 42.152 254.707 49.6115 254.707C54.8063 254.707 59.6664 254.163 64.192 253.073C65.5316 252.739 66.4941 252.569 67.0833 252.569C68.8415 252.569 69.7213 253.7 69.7213 255.964V266.524C69.7213 268.117 69.4893 269.271 69.0308 269.981C68.5696 270.693 67.6671 271.26 66.3274 271.679C60.6288 273.521 53.8012 274.444 45.8418 274.444Z" fill="#232F3E"/>
<path d="M120.119 255.712C126.486 255.712 131.284 253.492 134.51 249.05C137.736 244.608 139.351 238.071 139.351 229.438C139.351 220.638 137.715 213.996 134.448 209.512C131.181 205.028 126.404 202.787 120.119 202.787C113.835 202.787 109.079 205.008 105.855 209.45C102.627 213.892 101.016 220.43 101.016 229.062C101.016 237.779 102.627 244.399 105.855 248.923C109.079 253.45 113.835 255.712 120.119 255.712ZM120.119 274.947C110.985 274.947 103.109 273.04 96.4903 269.227C89.8719 265.414 84.8438 260.072 81.4087 253.198C77.9722 246.327 76.2552 238.282 76.2552 229.062C76.2552 219.591 78.0561 211.44 81.6593 204.61C85.2624 197.779 90.3518 192.562 96.9302 188.958C103.507 185.354 111.237 183.551 120.119 183.551C129.252 183.551 137.128 185.438 143.749 189.208C150.366 192.98 155.416 198.303 158.894 205.175C162.369 212.048 164.11 220.134 164.11 229.438C164.11 238.91 162.306 247.08 158.704 253.952C155.101 260.826 149.989 266.043 143.371 269.604C136.752 273.166 129 274.947 120.119 274.947Z" fill="#232F3E"/>
<path d="M183.967 272.81C182.626 272.81 181.662 272.517 181.076 271.93C180.489 271.345 180.196 270.381 180.196 269.038V189.459C180.196 188.037 180.489 187.053 181.076 186.505C181.662 185.961 182.626 185.689 183.967 185.689H202.82C203.991 185.689 204.894 185.878 205.522 186.254C206.151 186.631 206.757 187.449 207.344 188.706L227.078 232.958L247.061 188.706C247.646 187.449 248.255 186.631 248.883 186.254C249.512 185.878 250.412 185.689 251.586 185.689H269.559C270.982 185.689 271.967 185.961 272.513 186.505C273.056 187.053 273.329 188.037 273.329 189.459V269.038C273.329 270.381 273.056 271.345 272.513 271.93C271.967 272.517 270.982 272.81 269.559 272.81H256.236C254.895 272.81 253.93 272.517 253.346 271.93C252.758 271.345 252.466 270.381 252.466 269.038V219.005L238.766 249.93C238.179 251.186 237.572 252.005 236.943 252.382C236.315 252.758 235.414 252.947 234.241 252.947H219.285C218.109 252.947 217.209 252.758 216.583 252.382C215.954 252.005 215.345 251.186 214.761 249.93L201.06 219.005V269.038C201.06 270.381 200.787 271.345 200.243 271.93C199.698 272.517 198.714 272.81 197.289 272.81H183.967Z" fill="#232F3E"/>
<path d="M295.7 272.81C294.359 272.81 293.395 272.517 292.81 271.93C292.224 271.345 291.93 270.381 291.93 269.038V189.459C291.93 188.037 292.224 187.053 292.81 186.505C293.395 185.961 294.359 185.689 295.7 185.689H314.554C315.726 185.689 316.627 185.878 317.256 186.254C317.885 186.631 318.492 187.449 319.078 188.706L338.811 232.958L358.795 188.706C359.379 187.449 359.99 186.631 360.618 186.254C361.245 185.878 362.145 185.689 363.32 185.689H381.292C382.716 185.689 383.701 185.961 384.246 186.505C384.79 187.053 385.064 188.037 385.064 189.459V269.038C385.064 270.381 384.79 271.345 384.246 271.93C383.701 272.517 382.716 272.81 381.292 272.81H367.97C366.628 272.81 365.664 272.517 365.079 271.93C364.491 271.345 364.199 270.381 364.199 269.038V219.005L350.499 249.93C349.912 251.186 349.306 252.005 348.676 252.382C348.049 252.758 347.147 252.947 345.976 252.947H331.018C329.844 252.947 328.944 252.758 328.316 252.382C327.687 252.005 327.079 251.186 326.494 249.93L312.793 219.005V269.038C312.793 270.381 312.521 271.345 311.977 271.93C311.431 272.517 310.447 272.81 309.023 272.81H295.7Z" fill="#232F3E"/>
<path d="M441.244 274.947C429.177 274.947 419.814 271.992 413.153 266.085C406.492 260.176 403.161 251.773 403.161 240.877V189.46C403.161 188.036 403.453 187.052 404.041 186.505C404.626 185.961 405.59 185.689 406.932 185.689H423.648C425.072 185.689 426.054 185.961 426.602 186.505C427.146 187.052 427.418 188.036 427.418 189.46V241.633C427.418 246.243 428.591 249.741 430.938 252.131C433.282 254.519 436.718 255.712 441.244 255.712C450.546 255.712 455.195 251.02 455.195 241.633V189.46C455.195 188.036 455.488 187.052 456.075 186.505C456.659 185.961 457.624 185.689 458.966 185.689H475.682C477.104 185.689 478.09 185.961 478.636 186.505C479.18 187.052 479.452 188.036 479.452 189.46V241.004C479.452 251.815 476.099 260.176 469.397 266.085C462.693 271.992 453.31 274.947 441.244 274.947Z" fill="#232F3E"/>
<path d="M501.32 272.81C499.979 272.81 499.016 272.517 498.429 271.93C497.843 271.345 497.549 270.381 497.549 269.038V189.459C497.549 188.037 497.843 187.053 498.429 186.505C499.016 185.961 499.979 185.689 501.32 185.689H519.043C520.466 185.689 521.534 185.898 522.247 186.318C522.958 186.737 523.608 187.449 524.195 188.454L553.228 240.753V189.459C553.228 188.037 553.521 187.053 554.109 186.505C554.694 185.961 555.659 185.689 557 185.689H570.322C571.746 185.689 572.73 185.961 573.275 186.505C573.82 187.053 574.093 188.037 574.093 189.459V269.038C574.093 270.381 573.82 271.345 573.275 271.93C572.73 272.517 571.746 272.81 570.322 272.81H552.601C551.174 272.81 550.107 272.602 549.395 272.181C548.682 271.763 548.033 271.05 547.448 270.045L518.414 218.249V269.038C518.414 270.381 518.14 271.345 517.596 271.93C517.051 272.517 516.067 272.81 514.644 272.81H501.32Z" fill="#232F3E"/>
<path d="M596.966 272.81C595.625 272.81 594.662 272.517 594.076 271.93C593.49 271.345 593.197 270.381 593.197 269.038V189.459C593.197 188.037 593.49 187.053 594.076 186.505C594.662 185.961 595.625 185.689 596.966 185.689H613.684C615.106 185.689 616.091 185.961 616.637 186.505C617.18 187.053 617.453 188.037 617.453 189.459V269.038C617.453 270.381 617.18 271.345 616.637 271.93C616.091 272.517 615.106 272.81 613.684 272.81H596.966Z" fill="#232F3E"/>
<path d="M657.422 272.81C656.081 272.81 655.117 272.517 654.53 271.93C653.944 271.345 653.652 270.381 653.652 269.038V204.671H632.158C630.817 204.671 629.852 204.379 629.268 203.791C628.681 203.206 628.389 202.242 628.389 200.899V189.459C628.389 188.037 628.681 187.053 629.268 186.505C629.852 185.961 630.817 185.689 632.158 185.689H699.401C700.826 185.689 701.808 185.961 702.355 186.505C702.898 187.053 703.17 188.037 703.17 189.459V200.899C703.17 202.242 702.898 203.206 702.355 203.791C701.808 204.379 700.826 204.671 699.401 204.671H677.909V269.038C677.909 270.381 677.635 271.345 677.091 271.93C676.546 272.517 675.561 272.81 674.138 272.81H657.422Z" fill="#232F3E"/>
<path d="M742.634 272.81C741.292 272.81 740.329 272.517 739.743 271.93C739.156 271.345 738.863 270.381 738.863 269.038V239.998L712.595 191.974C711.589 190.215 711.087 188.957 711.087 188.203C711.087 186.527 712.173 185.689 714.354 185.689H732.202C733.541 185.689 734.609 185.941 735.406 186.443C736.202 186.946 736.851 187.783 737.355 188.957L751.682 222.649L766.263 188.957C766.765 187.783 767.413 186.946 768.21 186.443C769.006 185.941 770.074 185.689 771.416 185.689H788.005C790.184 185.689 791.274 186.527 791.274 188.203C791.274 188.957 790.77 190.215 789.765 191.974L763.12 240.25V269.038C763.12 270.381 762.848 271.345 762.304 271.93C761.757 272.517 760.773 272.81 759.35 272.81H742.634Z" fill="#232F3E"/>
<path d="M850.217 254.204H858.512C871.164 254.204 877.49 246.242 877.49 230.318V228.055C877.49 212.215 871.246 204.294 858.763 204.294H850.217V254.204ZM829.73 272.81C828.389 272.81 827.424 272.516 826.84 271.93C826.251 271.344 825.96 270.38 825.96 269.038V189.459C825.96 188.036 826.251 187.052 826.84 186.506C827.424 185.96 828.389 185.688 829.73 185.688H860.02C873.425 185.688 883.815 189.459 891.19 197.003C898.564 204.546 902.251 215.275 902.251 229.186C902.251 238.323 900.618 246.179 897.348 252.758C894.081 259.339 889.409 264.324 883.336 267.719C877.258 271.114 869.991 272.81 861.528 272.81H829.73Z" fill="#232F3E"/>
<path d="M958.054 238.866L949.004 206.558L940.206 238.866H958.054ZM909.664 272.81C907.485 272.81 906.397 271.973 906.397 270.295C906.397 269.626 906.73 268.369 907.402 266.523L935.18 188.706C935.597 187.533 936.099 186.737 936.688 186.318C937.272 185.898 938.237 185.689 939.578 185.689H959.688C961.027 185.689 961.992 185.898 962.579 186.318C963.163 186.737 963.667 187.533 964.086 188.706L991.99 266.523C992.659 268.369 992.995 269.626 992.995 270.295C992.995 271.973 991.906 272.81 989.728 272.81H970.873C969.532 272.81 968.549 272.559 967.92 272.057C967.292 271.553 966.768 270.547 966.349 269.038L962.579 255.963H935.682L932.036 269.038C931.616 270.547 931.094 271.553 930.466 272.057C929.838 272.559 928.852 272.81 927.512 272.81H909.664Z" fill="#232F3E"/>
<path d="M1018.63 272.81C1017.29 272.81 1016.33 272.517 1015.74 271.93C1015.16 271.345 1014.86 270.381 1014.86 269.038V239.998L988.595 191.974C987.59 190.215 987.087 188.957 987.087 188.203C987.087 186.527 988.174 185.689 990.354 185.689H1008.2C1009.54 185.689 1010.61 185.941 1011.41 186.443C1012.2 186.946 1012.85 187.783 1013.36 188.957L1027.68 222.649L1042.26 188.957C1042.77 187.783 1043.41 186.946 1044.21 186.443C1045.01 185.941 1046.07 185.689 1047.42 185.689H1064.01C1066.18 185.689 1067.27 186.527 1067.27 188.203C1067.27 188.957 1066.77 190.215 1065.77 191.974L1039.12 240.25V269.038C1039.12 270.381 1038.85 271.345 1038.3 271.93C1037.76 272.517 1036.77 272.81 1035.35 272.81H1018.63Z" fill="#232F3E"/>
<path d="M599.932 98.6798C596.718 98.6798 593.575 98.3211 590.506 97.6078C587.435 96.8945 585.078 96.0731 583.437 95.1438C582.436 94.5731 581.811 94.0025 581.563 93.4291C581.311 92.8585 581.187 92.2878 581.187 91.7158V88.6078C581.187 87.3225 581.651 86.6811 582.58 86.6811C582.936 86.6811 583.31 86.7531 583.704 86.8945C584.096 87.0398 584.615 87.2531 585.258 87.5385C587.328 88.4665 589.576 89.1811 592.006 89.6798C594.432 90.1798 596.86 90.4305 599.289 90.4305C603.144 90.4305 606.125 89.7531 608.232 88.3945C610.338 87.0398 611.392 85.1091 611.392 82.6091C611.392 80.8945 610.838 79.4665 609.732 78.3238C608.624 77.1825 606.571 76.1105 603.572 75.1091L594.682 72.3238C590.185 70.8958 586.917 68.8251 584.882 66.1105C582.848 63.3971 581.829 60.4318 581.829 57.2185C581.829 54.6478 582.383 52.3798 583.49 50.4158C584.597 48.4518 586.062 46.7718 587.881 45.3798C589.702 43.9865 591.827 42.9331 594.254 42.2185C596.682 41.5065 599.252 41.1491 601.966 41.1491C603.323 41.1491 604.697 41.2385 606.09 41.4158C607.483 41.5958 608.803 41.8278 610.053 42.1118C611.301 42.3985 612.462 42.7198 613.534 43.0771C614.605 43.4345 615.461 43.7918 616.105 44.1478C616.961 44.6491 617.566 45.1491 617.926 45.6478C618.283 46.1491 618.46 46.8251 618.46 47.6838V50.5758C618.46 51.8625 617.997 52.5038 617.067 52.5038C616.568 52.5038 615.784 52.2558 614.712 51.7545C611.213 50.1838 607.286 49.3971 602.931 49.3971C599.43 49.3971 596.718 49.9705 594.79 51.1118C592.861 52.2558 591.899 54.0771 591.899 56.5758C591.899 58.2891 592.504 59.7358 593.718 60.9145C594.932 62.0931 597.182 63.2171 600.466 64.2891L609.143 67.0745C613.568 68.5038 616.73 70.4678 618.622 72.9678C620.512 75.4678 621.46 78.3238 621.46 81.5385C621.46 84.1811 620.924 86.5558 619.853 88.6625C618.783 90.7691 617.299 92.5731 615.408 94.0718C613.515 95.5718 611.248 96.7158 608.607 97.5011C605.964 98.2865 603.072 98.6798 599.932 98.6798ZM521.314 97.0718C520.243 97.0718 519.455 96.8758 518.957 96.4838C518.457 96.0918 518.029 95.2878 517.672 94.0718L503.319 46.7185C502.961 45.5051 502.785 44.6838 502.785 44.2558C502.785 43.2558 503.283 42.7558 504.283 42.7558H510.282C511.423 42.7558 512.226 42.9531 512.692 43.3438C513.156 43.7371 513.565 44.5411 513.923 45.7558L524.206 86.2518L533.738 45.7558C534.022 44.5411 534.416 43.7371 534.917 43.3438C535.415 42.9531 536.238 42.7558 537.38 42.7558H542.307C543.448 42.7558 544.271 42.9531 544.77 43.3438C545.269 43.7371 545.662 44.5411 545.949 45.7558L555.588 86.7878L566.192 45.7558C566.548 44.5411 566.958 43.7371 567.424 43.3438C567.887 42.9531 568.69 42.7558 569.834 42.7558H575.511C576.511 42.7558 577.011 43.2558 577.011 44.2558C577.011 44.5411 576.973 44.8638 576.904 45.2185C576.832 45.5785 576.688 46.0771 576.475 46.7185L561.693 94.0718C561.336 95.2878 560.908 96.0918 560.409 96.4838C559.908 96.8758 559.123 97.0718 558.053 97.0718H552.804C551.661 97.0718 550.84 96.8585 550.34 96.4305C549.84 96.0011 549.447 95.1811 549.161 93.9651L539.629 54.5411L530.203 93.9651C529.918 95.1811 529.525 96.0011 529.026 96.4305C528.525 96.8585 527.704 97.0718 526.562 97.0718H521.314ZM472.151 90.4305C474.15 90.4305 476.257 90.0545 478.471 89.3051C480.683 88.5545 482.611 87.2531 484.255 85.3945C485.254 84.2531 485.95 82.9491 486.343 81.4851C486.735 80.0211 486.931 78.2531 486.931 76.1811V73.6091C485.146 73.1811 483.272 72.8438 481.309 72.5931C479.345 72.3425 477.435 72.2171 475.578 72.2171C471.508 72.2171 468.473 73.0398 466.475 74.6811C464.474 76.3251 463.476 78.6825 463.476 81.7518C463.476 84.6091 464.225 86.7705 465.724 88.2331C467.224 89.6985 469.366 90.4305 472.151 90.4305ZM497.001 81.1091C497.001 83.3958 497.231 85.2171 497.697 86.5731C498.16 87.9305 498.82 89.3958 499.679 90.9665C499.963 91.4665 500.107 91.9305 500.107 92.3585C500.107 93.0011 499.713 93.6091 498.928 94.1798L495.072 96.7505C494.5 97.1078 493.964 97.2865 493.466 97.2865C492.823 97.2865 492.215 97.0011 491.645 96.4305C490.788 95.5718 490.054 94.6265 489.449 93.5905C488.841 92.5558 488.218 91.3598 487.575 90.0011C482.791 95.6451 476.792 98.4651 469.581 98.4651C464.439 98.4651 460.368 97.0011 457.37 94.0718C454.371 91.1451 452.872 87.2158 452.872 82.2878C452.872 77.0745 454.728 72.8785 458.441 69.6998C462.153 66.5225 467.152 64.9318 473.436 64.9318C475.506 64.9318 477.667 65.0931 479.916 65.4145C482.166 65.7358 484.504 66.1825 486.931 66.7531V62.2545C486.931 57.6118 485.967 54.3438 484.041 52.4505C482.112 50.5585 478.792 49.6118 474.078 49.6118C471.936 49.6118 469.741 49.8798 467.492 50.4158C465.242 50.9505 463.046 51.6478 460.904 52.5038C459.905 52.9318 459.191 53.2011 458.762 53.3078C458.334 53.4158 458.013 53.4691 457.8 53.4691C456.941 53.4691 456.513 52.8251 456.513 51.5411V48.5411C456.513 47.5411 456.656 46.8251 456.941 46.3971C457.226 45.9691 457.8 45.5411 458.655 45.1118C460.798 44.0411 463.368 43.1131 466.367 42.3265C469.366 41.5411 472.543 41.1491 475.899 41.1491C483.183 41.1491 488.52 42.8091 491.913 46.1305C495.304 49.4505 497.001 54.4705 497.001 61.1825V81.1091Z" fill="#232F3E"/>
<path fill-rule="evenodd" clip-rule="evenodd" d="M611.508 128.828C591.356 143.703 562.142 151.612 536.984 151.612C501.726 151.612 469.975 138.578 445.949 116.876C444.063 115.172 445.745 112.847 448.014 114.166C473.935 129.252 505.993 138.34 539.102 138.34C561.437 138.34 585.987 133.703 608.58 124.119C611.984 122.674 614.841 126.363 611.508 128.828Z" fill="#FF9900"/>
<path fill-rule="evenodd" clip-rule="evenodd" d="M619.893 119.251C617.315 115.95 602.857 117.687 596.36 118.466C594.391 118.702 594.087 116.982 595.86 115.737C607.396 107.633 626.297 109.971 628.493 112.686C630.705 115.422 627.912 134.377 617.102 143.422C615.439 144.813 613.858 144.07 614.594 142.234C617.028 136.158 622.474 122.555 619.893 119.251Z" fill="#FF9900"/>
<path d="M397.997 332.029L86.3168 332.639L397.997 332.029Z" fill="#232F3E"/>
<path d="M397.997 332.029L86.3168 332.639" stroke="#232F3E" stroke-width="2.66667" stroke-miterlimit="10"/>
<path d="M982.683 332.029L671.003 332.639L982.683 332.029Z" fill="#232F3E"/>
<path d="M982.683 332.029L671.003 332.639" stroke="#232F3E" stroke-width="2.66667" stroke-miterlimit="10"/>
<path d="M450.863 347.638V323.698H441.986V317.029H468.261V323.698H459.386V347.638H450.863Z" fill="#FF9900"/>
<path d="M480.494 335.714H486.676L483.541 324.362L480.494 335.714ZM489.943 347.638L488.266 341.719H478.905L477.314 347.638H468.306L479.081 317.028H488.486L499.262 347.638H489.943Z" fill="#FF9900"/>
<path d="M505.002 317.028H513.524V347.637H505.002V317.028Z" fill="#FF9900"/>
<path d="M545.407 347.638L541.08 327.63L536.84 347.638H527.876L519.618 317.029H528.979L532.557 338.185L536.929 317.646H545.585L549.956 338.495L553.577 317.029H562.63L554.417 347.638H545.407Z" fill="#FF9900"/>
<path d="M575.791 335.714H581.973L578.836 324.362L575.791 335.714ZM585.24 347.638L583.562 341.719H574.2L572.61 347.638H563.602L574.376 317.028H583.783L594.558 347.638H585.24Z" fill="#FF9900"/>
<path d="M607.452 328.469V347.638H600.12V317.029H608.953L619.684 336.376V317.029H627.014V347.638H618.183L607.452 328.469Z" fill="#FF9900"/>
</g>
</g>
<defs>
<clipPath id="clip0_5_307">
<rect width="1068" height="390" fill="white"/>
</clipPath>
</defs>
</svg>
