<svg width="1068" height="390" viewBox="0 0 1068 390" fill="none" xmlns="http://www.w3.org/2000/svg">
    <g clip-path="url(#clip0_5_305)">
        <mask id="mask0_5_305" style="mask-type:luminance" maskUnits="userSpaceOnUse" x="0" y="0" width="1069" height="390">
            <path d="M0.78241 0H1068.78V390H0.78241V0Z" fill="white"/>
        </mask>
        <g mask="url(#mask0_5_305)">
            <path d="M47.8418 274.444C33.428 274.444 22.4733 270.632 14.9751 263.004C7.4743 255.379 3.72455 244.231 3.72455 229.564C3.72455 215.149 7.64226 203.961 15.4777 195.997C23.3118 188.036 34.2238 184.055 48.2177 184.055C54.9214 184.055 61.2052 184.933 67.0718 186.693C68.4114 187.115 69.3112 187.68 69.7738 188.392C70.2336 189.104 70.4656 190.257 70.4656 191.849V202.409C70.4656 204.672 69.5858 205.804 67.8249 205.804C67.405 205.804 66.3586 205.595 64.683 205.175C60.5773 204.252 56.4703 203.792 52.366 203.792C44.6559 203.792 38.8333 205.824 34.8956 209.889C30.9566 213.955 28.9877 219.968 28.9877 227.929V230.695C28.9877 238.489 30.8926 244.441 34.7063 248.547C38.5187 252.653 44.152 254.707 51.6115 254.707C56.8063 254.707 61.6664 254.163 66.192 253.073C67.5316 252.739 68.4941 252.569 69.0833 252.569C70.8415 252.569 71.7213 253.7 71.7213 255.964V266.524C71.7213 268.117 71.4893 269.271 71.0308 269.981C70.5696 270.693 69.6671 271.26 68.3274 271.679C62.6288 273.521 55.8012 274.444 47.8418 274.444Z" fill="white"/>
            <path d="M122.119 255.712C128.486 255.712 133.284 253.492 136.51 249.05C139.736 244.608 141.351 238.071 141.351 229.438C141.351 220.638 139.715 213.996 136.448 209.512C133.181 205.028 128.404 202.787 122.119 202.787C115.835 202.787 111.079 205.008 107.855 209.45C104.627 213.892 103.016 220.43 103.016 229.062C103.016 237.779 104.627 244.399 107.855 248.923C111.079 253.45 115.835 255.712 122.119 255.712ZM122.119 274.947C112.985 274.947 105.109 273.04 98.4903 269.227C91.8719 265.414 86.8438 260.072 83.4087 253.198C79.9722 246.327 78.2552 238.282 78.2552 229.062C78.2552 219.591 80.0561 211.44 83.6593 204.61C87.2624 197.779 92.3518 192.562 98.9302 188.958C105.507 185.354 113.237 183.551 122.119 183.551C131.252 183.551 139.128 185.438 145.749 189.208C152.366 192.98 157.416 198.303 160.894 205.175C164.369 212.048 166.11 220.134 166.11 229.438C166.11 238.91 164.306 247.08 160.704 253.952C157.101 260.826 151.989 266.043 145.371 269.604C138.752 273.166 131 274.947 122.119 274.947Z" fill="white"/>
            <path d="M185.967 272.81C184.626 272.81 183.662 272.517 183.076 271.93C182.489 271.345 182.196 270.381 182.196 269.038V189.459C182.196 188.037 182.489 187.053 183.076 186.505C183.662 185.961 184.626 185.689 185.967 185.689H204.82C205.991 185.689 206.894 185.878 207.522 186.254C208.151 186.631 208.757 187.449 209.344 188.706L229.078 232.958L249.061 188.706C249.646 187.449 250.255 186.631 250.883 186.254C251.512 185.878 252.412 185.689 253.586 185.689H271.559C272.982 185.689 273.967 185.961 274.513 186.505C275.056 187.053 275.329 188.037 275.329 189.459V269.038C275.329 270.381 275.056 271.345 274.513 271.93C273.967 272.517 272.982 272.81 271.559 272.81H258.236C256.895 272.81 255.93 272.517 255.346 271.93C254.758 271.345 254.466 270.381 254.466 269.038V219.005L240.766 249.93C240.179 251.186 239.572 252.005 238.943 252.382C238.315 252.758 237.414 252.947 236.241 252.947H221.285C220.109 252.947 219.209 252.758 218.583 252.382C217.954 252.005 217.345 251.186 216.761 249.93L203.06 219.005V269.038C203.06 270.381 202.787 271.345 202.243 271.93C201.698 272.517 200.714 272.81 199.289 272.81H185.967Z" fill="white"/>
            <path d="M297.7 272.81C296.359 272.81 295.395 272.517 294.81 271.93C294.224 271.345 293.93 270.381 293.93 269.038V189.459C293.93 188.037 294.224 187.053 294.81 186.505C295.395 185.961 296.359 185.689 297.7 185.689H316.554C317.726 185.689 318.627 185.878 319.256 186.254C319.885 186.631 320.492 187.449 321.078 188.706L340.811 232.958L360.795 188.706C361.379 187.449 361.99 186.631 362.617 186.254C363.245 185.878 364.145 185.689 365.32 185.689H383.292C384.716 185.689 385.701 185.961 386.246 186.505C386.79 187.053 387.064 188.037 387.064 189.459V269.038C387.064 270.381 386.79 271.345 386.246 271.93C385.701 272.517 384.716 272.81 383.292 272.81H369.97C368.628 272.81 367.664 272.517 367.079 271.93C366.491 271.345 366.199 270.381 366.199 269.038V219.005L352.499 249.93C351.912 251.186 351.306 252.005 350.676 252.382C350.049 252.758 349.147 252.947 347.976 252.947H333.018C331.844 252.947 330.944 252.758 330.316 252.382C329.687 252.005 329.079 251.186 328.494 249.93L314.793 219.005V269.038C314.793 270.381 314.521 271.345 313.977 271.93C313.431 272.517 312.447 272.81 311.023 272.81H297.7Z" fill="white"/>
            <path d="M443.244 274.947C431.177 274.947 421.814 271.992 415.153 266.085C408.492 260.176 405.161 251.773 405.161 240.877V189.46C405.161 188.036 405.453 187.052 406.041 186.505C406.626 185.961 407.59 185.689 408.932 185.689H425.648C427.072 185.689 428.054 185.961 428.602 186.505C429.146 187.052 429.418 188.036 429.418 189.46V241.633C429.418 246.243 430.591 249.741 432.938 252.131C435.282 254.519 438.718 255.712 443.244 255.712C452.546 255.712 457.195 251.02 457.195 241.633V189.46C457.195 188.036 457.488 187.052 458.075 186.505C458.659 185.961 459.624 185.689 460.966 185.689H477.682C479.104 185.689 480.09 185.961 480.636 186.505C481.18 187.052 481.452 188.036 481.452 189.46V241.004C481.452 251.815 478.099 260.176 471.397 266.085C464.693 271.992 455.31 274.947 443.244 274.947Z" fill="white"/>
            <path d="M503.32 272.81C501.979 272.81 501.016 272.517 500.429 271.93C499.843 271.345 499.549 270.381 499.549 269.038V189.459C499.549 188.037 499.843 187.053 500.429 186.505C501.016 185.961 501.979 185.689 503.32 185.689H521.043C522.466 185.689 523.534 185.898 524.247 186.318C524.958 186.737 525.608 187.449 526.195 188.454L555.228 240.753V189.459C555.228 188.037 555.521 187.053 556.109 186.505C556.694 185.961 557.659 185.689 559 185.689H572.322C573.746 185.689 574.73 185.961 575.275 186.505C575.82 187.053 576.093 188.037 576.093 189.459V269.038C576.093 270.381 575.82 271.345 575.275 271.93C574.73 272.517 573.746 272.81 572.322 272.81H554.601C553.174 272.81 552.107 272.602 551.395 272.181C550.682 271.763 550.033 271.05 549.448 270.045L520.414 218.249V269.038C520.414 270.381 520.14 271.345 519.596 271.93C519.051 272.517 518.067 272.81 516.644 272.81H503.32Z" fill="white"/>
            <path d="M598.966 272.81C597.625 272.81 596.662 272.517 596.076 271.93C595.49 271.345 595.197 270.381 595.197 269.038V189.459C595.197 188.037 595.49 187.053 596.076 186.505C596.662 185.961 597.625 185.689 598.966 185.689H615.684C617.106 185.689 618.091 185.961 618.637 186.505C619.18 187.053 619.453 188.037 619.453 189.459V269.038C619.453 270.381 619.18 271.345 618.637 271.93C618.091 272.517 617.106 272.81 615.684 272.81H598.966Z" fill="white"/>
            <path d="M659.422 272.81C658.081 272.81 657.117 272.517 656.53 271.93C655.944 271.345 655.652 270.381 655.652 269.038V204.671H634.158C632.817 204.671 631.852 204.379 631.268 203.791C630.681 203.206 630.389 202.242 630.389 200.899V189.459C630.389 188.037 630.681 187.053 631.268 186.505C631.852 185.961 632.817 185.689 634.158 185.689H701.401C702.826 185.689 703.808 185.961 704.355 186.505C704.898 187.053 705.17 188.037 705.17 189.459V200.899C705.17 202.242 704.898 203.206 704.355 203.791C703.808 204.379 702.826 204.671 701.401 204.671H679.909V269.038C679.909 270.381 679.635 271.345 679.091 271.93C678.546 272.517 677.561 272.81 676.137 272.81H659.422Z" fill="white"/>
            <path d="M744.634 272.81C743.292 272.81 742.329 272.517 741.743 271.93C741.156 271.345 740.863 270.381 740.863 269.038V239.998L714.595 191.974C713.589 190.215 713.087 188.957 713.087 188.203C713.087 186.527 714.173 185.689 716.354 185.689H734.202C735.541 185.689 736.609 185.941 737.406 186.443C738.202 186.946 738.851 187.783 739.355 188.957L753.682 222.649L768.263 188.957C768.765 187.783 769.413 186.946 770.21 186.443C771.006 185.941 772.074 185.689 773.416 185.689H790.005C792.184 185.689 793.274 186.527 793.274 188.203C793.274 188.957 792.77 190.215 791.765 191.974L765.12 240.25V269.038C765.12 270.381 764.848 271.345 764.304 271.93C763.757 272.517 762.773 272.81 761.35 272.81H744.634Z" fill="white"/>
            <path d="M852.217 254.204H860.512C873.164 254.204 879.49 246.242 879.49 230.318V228.055C879.49 212.215 873.246 204.294 860.763 204.294H852.217V254.204ZM831.73 272.81C830.389 272.81 829.424 272.516 828.84 271.93C828.251 271.344 827.96 270.38 827.96 269.038V189.459C827.96 188.036 828.251 187.052 828.84 186.506C829.424 185.96 830.389 185.688 831.73 185.688H862.02C875.425 185.688 885.815 189.459 893.19 197.003C900.564 204.546 904.251 215.275 904.251 229.186C904.251 238.323 902.618 246.179 899.348 252.758C896.081 259.339 891.409 264.324 885.336 267.719C879.258 271.114 871.991 272.81 863.528 272.81H831.73Z" fill="white"/>
            <path d="M960.054 238.866L951.004 206.558L942.206 238.866H960.054ZM911.664 272.81C909.485 272.81 908.397 271.973 908.397 270.295C908.397 269.626 908.73 268.369 909.402 266.523L937.18 188.706C937.597 187.533 938.099 186.737 938.688 186.318C939.272 185.898 940.237 185.689 941.578 185.689H961.688C963.027 185.689 963.992 185.898 964.579 186.318C965.163 186.737 965.667 187.533 966.086 188.706L993.99 266.523C994.659 268.369 994.995 269.626 994.995 270.295C994.995 271.973 993.906 272.81 991.728 272.81H972.873C971.532 272.81 970.549 272.559 969.92 272.057C969.292 271.553 968.768 270.547 968.349 269.038L964.579 255.963H937.682L934.036 269.038C933.616 270.547 933.094 271.553 932.466 272.057C931.838 272.559 930.852 272.81 929.512 272.81H911.664Z" fill="white"/>
            <path d="M1020.63 272.81C1019.29 272.81 1018.33 272.517 1017.74 271.93C1017.16 271.345 1016.86 270.381 1016.86 269.038V239.998L990.595 191.974C989.59 190.215 989.087 188.957 989.087 188.203C989.087 186.527 990.174 185.689 992.354 185.689H1010.2C1011.54 185.689 1012.61 185.941 1013.41 186.443C1014.2 186.946 1014.85 187.783 1015.36 188.957L1029.68 222.649L1044.26 188.957C1044.77 187.783 1045.41 186.946 1046.21 186.443C1047.01 185.941 1048.07 185.689 1049.42 185.689H1066.01C1068.18 185.689 1069.27 186.527 1069.27 188.203C1069.27 188.957 1068.77 190.215 1067.77 191.974L1041.12 240.25V269.038C1041.12 270.381 1040.85 271.345 1040.3 271.93C1039.76 272.517 1038.77 272.81 1037.35 272.81H1020.63Z" fill="white"/>
            <path d="M601.932 98.6798C598.718 98.6798 595.575 98.3211 592.506 97.6078C589.435 96.8945 587.078 96.0731 585.437 95.1438C584.436 94.5731 583.811 94.0025 583.563 93.4291C583.311 92.8585 583.187 92.2878 583.187 91.7158V88.6078C583.187 87.3225 583.651 86.6811 584.58 86.6811C584.936 86.6811 585.31 86.7531 585.704 86.8945C586.095 87.0398 586.615 87.2531 587.258 87.5385C589.328 88.4665 591.575 89.1811 594.006 89.6798C596.432 90.1798 598.86 90.4305 601.289 90.4305C605.144 90.4305 608.125 89.7531 610.232 88.3945C612.338 87.0398 613.391 85.1091 613.391 82.6091C613.391 80.8945 612.838 79.4665 611.732 78.3238C610.624 77.1825 608.571 76.1105 605.572 75.1091L596.682 72.3238C592.185 70.8958 588.917 68.8251 586.882 66.1105C584.848 63.3971 583.829 60.4318 583.829 57.2185C583.829 54.6478 584.383 52.3798 585.49 50.4158C586.597 48.4518 588.062 46.7718 589.881 45.3798C591.702 43.9865 593.827 42.9331 596.254 42.2185C598.682 41.5065 601.252 41.1491 603.966 41.1491C605.323 41.1491 606.697 41.2385 608.09 41.4158C609.483 41.5958 610.803 41.8278 612.053 42.1118C613.301 42.3985 614.462 42.7198 615.534 43.0771C616.605 43.4345 617.461 43.7918 618.105 44.1478C618.961 44.6491 619.566 45.1491 619.926 45.6478C620.283 46.1491 620.46 46.8251 620.46 47.6838V50.5758C620.46 51.8625 619.997 52.5038 619.067 52.5038C618.568 52.5038 617.784 52.2558 616.712 51.7545C613.213 50.1838 609.286 49.3971 604.931 49.3971C601.43 49.3971 598.718 49.9705 596.79 51.1118C594.861 52.2558 593.899 54.0771 593.899 56.5758C593.899 58.2891 594.504 59.7358 595.718 60.9145C596.932 62.0931 599.182 63.2171 602.466 64.2891L611.143 67.0745C615.568 68.5038 618.73 70.4678 620.622 72.9678C622.512 75.4678 623.46 78.3238 623.46 81.5385C623.46 84.1811 622.924 86.5558 621.853 88.6625C620.783 90.7691 619.299 92.5731 617.408 94.0718C615.515 95.5718 613.248 96.7158 610.607 97.5011C607.963 98.2865 605.072 98.6798 601.932 98.6798ZM523.313 97.0718C522.243 97.0718 521.455 96.8758 520.957 96.4838C520.457 96.0918 520.029 95.2878 519.672 94.0718L505.319 46.7185C504.961 45.5051 504.785 44.6838 504.785 44.2558C504.785 43.2558 505.283 42.7558 506.283 42.7558H512.282C513.423 42.7558 514.226 42.9531 514.692 43.3438C515.155 43.7371 515.565 44.5411 515.923 45.7558L526.206 86.2518L535.738 45.7558C536.022 44.5411 536.416 43.7371 536.917 43.3438C537.415 42.9531 538.238 42.7558 539.38 42.7558H544.307C545.448 42.7558 546.271 42.9531 546.77 43.3438C547.269 43.7371 547.662 44.5411 547.949 45.7558L557.588 86.7878L568.192 45.7558C568.548 44.5411 568.958 43.7371 569.424 43.3438C569.887 42.9531 570.69 42.7558 571.834 42.7558H577.511C578.511 42.7558 579.011 43.2558 579.011 44.2558C579.011 44.5411 578.973 44.8638 578.904 45.2185C578.832 45.5785 578.688 46.0771 578.475 46.7185L563.693 94.0718C563.336 95.2878 562.908 96.0918 562.409 96.4838C561.908 96.8758 561.123 97.0718 560.053 97.0718H554.804C553.661 97.0718 552.84 96.8585 552.34 96.4305C551.84 96.0011 551.447 95.1811 551.161 93.9651L541.629 54.5411L532.203 93.9651C531.918 95.1811 531.525 96.0011 531.026 96.4305C530.525 96.8585 529.704 97.0718 528.562 97.0718H523.313ZM474.151 90.4305C476.15 90.4305 478.256 90.0545 480.471 89.3051C482.683 88.5545 484.611 87.2531 486.255 85.3945C487.254 84.2531 487.95 82.9491 488.343 81.4851C488.735 80.0211 488.931 78.2531 488.931 76.1811V73.6091C487.146 73.1811 485.272 72.8438 483.309 72.5931C481.345 72.3425 479.435 72.2171 477.578 72.2171C473.508 72.2171 470.473 73.0398 468.475 74.6811C466.474 76.3251 465.476 78.6825 465.476 81.7518C465.476 84.6091 466.225 86.7705 467.724 88.2331C469.224 89.6985 471.366 90.4305 474.151 90.4305ZM499.001 81.1091C499.001 83.3958 499.231 85.2171 499.697 86.5731C500.16 87.9305 500.82 89.3958 501.679 90.9665C501.963 91.4665 502.107 91.9305 502.107 92.3585C502.107 93.0011 501.713 93.6091 500.928 94.1798L497.072 96.7505C496.5 97.1078 495.964 97.2865 495.466 97.2865C494.823 97.2865 494.215 97.0011 493.645 96.4305C492.788 95.5718 492.054 94.6265 491.449 93.5905C490.841 92.5558 490.218 91.3598 489.575 90.0011C484.791 95.6451 478.792 98.4651 471.581 98.4651C466.439 98.4651 462.368 97.0011 459.37 94.0718C456.371 91.1451 454.872 87.2158 454.872 82.2878C454.872 77.0745 456.728 72.8785 460.441 69.6998C464.153 66.5225 469.152 64.9318 475.436 64.9318C477.506 64.9318 479.667 65.0931 481.916 65.4145C484.166 65.7358 486.504 66.1825 488.931 66.7531V62.2545C488.931 57.6118 487.967 54.3438 486.041 52.4505C484.112 50.5585 480.792 49.6118 476.078 49.6118C473.936 49.6118 471.741 49.8798 469.492 50.4158C467.242 50.9505 465.046 51.6478 462.904 52.5038C461.904 52.9318 461.191 53.2011 460.762 53.3078C460.334 53.4158 460.013 53.4691 459.8 53.4691C458.941 53.4691 458.513 52.8251 458.513 51.5411V48.5411C458.513 47.5411 458.656 46.8251 458.941 46.3971C459.226 45.9691 459.8 45.5411 460.655 45.1118C462.798 44.0411 465.368 43.1131 468.367 42.3265C471.366 41.5411 474.543 41.1491 477.899 41.1491C485.183 41.1491 490.52 42.8091 493.913 46.1305C497.304 49.4505 499.001 54.4705 499.001 61.1825V81.1091Z" fill="white"/>
            <path fill-rule="evenodd" clip-rule="evenodd" d="M613.508 128.828C593.356 143.703 564.142 151.612 538.984 151.612C503.726 151.612 471.975 138.578 447.949 116.876C446.062 115.172 447.745 112.847 450.014 114.166C475.935 129.252 507.993 138.34 541.102 138.34C563.436 138.34 587.986 133.703 610.58 124.119C613.984 122.674 616.841 126.363 613.508 128.828Z" fill="#FF9900"/>
            <path fill-rule="evenodd" clip-rule="evenodd" d="M621.893 119.251C619.315 115.95 604.857 117.687 598.36 118.466C596.391 118.702 596.087 116.982 597.86 115.737C609.396 107.633 628.297 109.971 630.493 112.686C632.705 115.422 629.912 134.377 619.102 143.422C617.439 144.813 615.858 144.07 616.594 142.234C619.028 136.158 624.474 122.555 621.893 119.251Z" fill="#FF9900"/>
            <path d="M399.997 332.029L88.3168 332.639Z" fill="white"/>
            <path d="M399.997 332.029L88.3168 332.639" stroke="white" stroke-width="2.66667" stroke-miterlimit="10"/>
            <path d="M984.683 332.029L673.003 332.639Z" fill="white"/>
            <path d="M984.683 332.029L673.003 332.639" stroke="white" stroke-width="2.66667" stroke-miterlimit="10"/>
            <path d="M452.863 347.638V323.698H443.986V317.029H470.261V323.698H461.386V347.638H452.863Z" fill="#FF9900"/>
            <path d="M482.494 335.714H488.676L485.541 324.362L482.494 335.714ZM491.943 347.638L490.266 341.719H480.905L479.314 347.638H470.306L481.081 317.028H490.486L501.262 347.638H491.943Z" fill="#FF9900"/>
            <path d="M507.002 317.028H515.524V347.637H507.002V317.028Z" fill="#FF9900"/>
            <path d="M547.407 347.638L543.08 327.63L538.84 347.638H529.876L521.618 317.029H530.979L534.557 338.185L538.929 317.646H547.585L551.956 338.495L555.577 317.029H564.63L556.417 347.638H547.407Z" fill="#FF9900"/>
            <path d="M577.791 335.714H583.973L580.836 324.362L577.791 335.714ZM587.24 347.638L585.562 341.719H576.2L574.61 347.638H565.602L576.376 317.028H585.783L596.558 347.638H587.24Z" fill="#FF9900"/>
            <path d="M609.452 328.469V347.638H602.12V317.029H610.953L621.684 336.376V317.029H629.014V347.638H620.183L609.452 328.469Z" fill="#FF9900"/>
        </g>
    </g>
    <defs>
        <clipPath id="clip0_5_305">
            <rect width="1068" height="390" fill="white"/>
        </clipPath>
    </defs>
</svg>
