<svg xmlns="http://www.w3.org/2000/svg" viewBox="0 0 635.33 170.63"><defs><style>.cls-1{fill:#231f20;}.cls-2{fill:#00bdde;}</style></defs><g id="Layer_2" data-name="Layer 2"><g id="Layer_1-2" data-name="Layer 1"><path d="M237.58,52.86h6.12l42.71,47.62h.42V52.86h4.82V118h-3.87L242.86,66.56h-.37V118h-4.91Z"/><path d="M355.21,52.86v4.2H320.88v23.3h23v4.21h-23V113.8h34.33V118H309.94V52.86Z"/><path d="M421.12,52.86v4.2H397.54v61H386.6V57.06H363v-4.2Z"/><path d="M433.09,52.86h22.55A37.78,37.78,0,0,1,466,54.12a21.79,21.79,0,0,1,7.37,3.53A15.07,15.07,0,0,1,477.76,63a15.43,15.43,0,0,1,1.5,6.8,14,14,0,0,1-1.15,5.69,15.55,15.55,0,0,1-3.25,4.77,20.86,20.86,0,0,1-5.05,3.7,27.56,27.56,0,0,1-6.5,2.41L487,118H474.35L451.71,87.38H444V118h-11ZM444,84.1h6.31a22.73,22.73,0,0,0,6.81-1,16.83,16.83,0,0,0,5.4-2.78,12.5,12.5,0,0,0,4.86-10.13,13.69,13.69,0,0,0-1-5.36,12.35,12.35,0,0,0-2.85-4.21,13,13,0,0,0-4.35-2.73,15,15,0,0,0-5.52-1H444Z"/><path d="M527.53,119.56a37,37,0,0,1-18.29-4.73,35.16,35.16,0,0,1-7.25-5.4,33.32,33.32,0,0,1-5.57-7,34.47,34.47,0,0,1-3.55-8.23A32.81,32.81,0,0,1,491.6,85a31.44,31.44,0,0,1,1.27-9,33.2,33.2,0,0,1,3.55-8,32.51,32.51,0,0,1,5.57-6.8,36.45,36.45,0,0,1,7.25-5.27,37,37,0,0,1,8.6-3.39,40,40,0,0,1,19.37,0,36.87,36.87,0,0,1,8.6,3.39,36.45,36.45,0,0,1,7.25,5.27,32.51,32.51,0,0,1,5.57,6.8,33.62,33.62,0,0,1,3.56,8,31.79,31.79,0,0,1,1.26,9,33.18,33.18,0,0,1-1.26,9.14,34.77,34.77,0,0,1-3.56,8.26,33.32,33.32,0,0,1-5.57,7,35.16,35.16,0,0,1-7.25,5.4,36.66,36.66,0,0,1-8.6,3.49A37.17,37.17,0,0,1,527.53,119.56Zm0-3.28a20.22,20.22,0,0,0,9.87-2.34,20.94,20.94,0,0,0,7.22-6.5,30.85,30.85,0,0,0,4.45-9.89A48.85,48.85,0,0,0,550.59,85a46.88,46.88,0,0,0-1.52-12.28,29.64,29.64,0,0,0-4.45-9.64,20.72,20.72,0,0,0-7.22-6.29,21.11,21.11,0,0,0-9.87-2.24,21.59,21.59,0,0,0-10,2.24,20.38,20.38,0,0,0-7.22,6.29,29,29,0,0,0-4.38,9.64A48.24,48.24,0,0,0,504.42,85a50.27,50.27,0,0,0,1.47,12.51,30.13,30.13,0,0,0,4.38,9.89,20.08,20.08,0,0,0,17.26,8.84Z"/><path d="M578.93,52.86h6.13l42.7,47.62h.43V52.86H633V118h-3.87L584.22,66.56h-.38V118h-4.91Z"/><path class="cls-1" d="M240.68,160.43a46.06,46.06,0,0,1-1.27,9.39l-2.92-.88a39.15,39.15,0,0,0,1.34-8.89Zm8.66-2.8-2.7.65c-.11-.62-.23-1.19-.34-1.73a48.4,48.4,0,0,1-8.58,1.85l-.92-3a4.58,4.58,0,0,0,1.53-.93,37.64,37.64,0,0,0,3.81-5.77c-1.5.23-3,.5-4.57.73l-.89-3.19a3.52,3.52,0,0,0,1.46-1.31,63.27,63.27,0,0,0,4-10.31l3.3,1.31a62.07,62.07,0,0,1-4.88,10.2c1.08-.16,2.19-.35,3.27-.54q1-2.09,2.19-4.5l3.15,1.15a86.78,86.78,0,0,1-7.69,12.73c1.39-.23,2.81-.53,4.27-.92-.31-1.15-.61-2.31-.92-3.38l2.61-.85A61.8,61.8,0,0,1,249.34,157.63Zm-3.62,10.11-2.92.66c-.31-3-.69-5.66-1.16-8l2.58-.53C244.76,162.28,245.26,164.9,245.72,167.74Zm4.27-2.5-2.58,1.2a59.12,59.12,0,0,0-1.88-6.81l2.34-.81A55.52,55.52,0,0,1,250,165.24Zm12.7,4.54-.89-3.27,4.69.16c.7,0,1.08-.47,1.08-1.39V139.43H253.45v30.62h-3.34V136.2H271V166c0,2.5-1.16,3.77-3.39,3.77ZM259.8,145l-2,.88h3.31a29.39,29.39,0,0,0,1.19-5.3l3,.42a23.79,23.79,0,0,1-1.5,4.88h2.77V149h-12.2v-3.08h2.85a29,29,0,0,0-1.92-4.27l2.54-.84A28.64,28.64,0,0,1,259.8,145Zm-3.65,15.93v-4.81H254.8v-3.08h4.58a30.83,30.83,0,0,0-1.16-3.08l3.08-.46c.31,1,.65,2.23,1,3.54h4v3.08h-7v4.3c0,.47.31.7,1,.7h5.62v3H259.3C257.18,164.09,256.15,163,256.15,160.94Z"/><path class="cls-1" d="M370.37,135a113.8,113.8,0,0,1,9.85,6.85l-2.12,2.8c-1.34-1.07-2.57-2.07-3.69-2.92V144h-9.15v-1.42c-1.73,1.42-3.66,2.84-5.77,4.27l-2.12-3A49.64,49.64,0,0,0,368.18,135Zm7.77,35.2h-3.42v-1.35h-7.23v1.38h-3.31V159.63a30.77,30.77,0,0,1-3.93,10.65l-2.84-2.54q3.75-5.7,3.81-14.69v-7.19h16.54v11.38H364.53c-.08.77-.2,1.5-.31,2.19h13.92Zm-13.38-17.16c0,.54,0,1,0,1.58h9.54v-1.89h-9.5Zm9.5-4.54h-9.5v1.85h9.5Zm-.43-7.19c-1.65-1.27-3.07-2.27-4.23-3a40.76,40.76,0,0,1-2.92,3Zm.89,24.69v-3.73h-7.23V166Zm7.54,4-.85-3.53c1.85.11,3.62.19,5.31.19a1.23,1.23,0,0,0,1.39-1.39V135h3.61v31.16c0,2.53-1.27,3.8-3.73,3.8ZM385,137.58V162.2h-3.5V137.58Z"/><path class="cls-1" d="M503.72,140.78c-.15.54-.31,1-.5,1.54a17.9,17.9,0,0,0,10.35,4.57l-1.5,3a16.85,16.85,0,0,1-3-.69V165h-7.62a84.67,84.67,0,0,1,11.88,2.77l-1.19,2.89a76.87,76.87,0,0,0-12.85-3.35l1.2-2.31h-8.85l1.58,2A41.72,41.72,0,0,1,481,170.59l-1.65-2.81A51.88,51.88,0,0,0,490.76,165h-7.08V149.09H493l-1.46-2.23c5.15-.93,8.19-3.16,9.15-6.7Zm-13.19,3v3.11H479.41v-3.11Zm-.81-6.93v3.08h-9.54v-3.08Zm15.81,16.81v-1.8H487.26v1.8Zm0,4.12v-1.69H487.26v1.69Zm0,2.39H487.26v1.88h18.27Zm-13.2-16.12-2-2.66a14,14,0,0,0,5.54-6.77l3.35.39c-.23.61-.46,1.23-.73,1.81H512v2.53a21.47,21.47,0,0,1-3.31,5l-2.5-2a15.36,15.36,0,0,0,2-2.61H496.72A20.11,20.11,0,0,1,492.33,144.05Zm16.43,5a18.49,18.49,0,0,1-7-4.31,13.23,13.23,0,0,1-7,4.31Z"/><path class="cls-1" d="M605.06,139.47a35.49,35.49,0,0,0-1.58-3.77l3.5-1a28.48,28.48,0,0,1,1.5,4.73h4.7v3.39H599.87v-3.39Zm7,30.27h-3.35v-1.65h-4.54v2h-3.34V156.28H612.1Zm-.35-24.54v3.19H601.21V145.2Zm0,5.35v3.23H601.21v-3.23Zm-3,14.23v-5.19h-4.54v5.19Zm9.35-14.42V139.85H614v-3.5H630.3v12.43c0,7.31.3,12.35,1,15.12.27,1.19.54,1.8.77,1.8a4.69,4.69,0,0,0,.34-1.57c.08-1.08.12-2.35.12-3.85l2.84,1.39c-.15,3.69-.5,6-1,7.11a1.75,1.75,0,0,1-1.47,1.12c-1.42,0-2.61-.89-3.57-2.62-1.7-3-2.54-9.19-2.54-18.5v-8.93h-5.08v10.51h4.27v3.5h-4.27v16.31H618.1V153.86h-4.27v-3.5Z"/><circle class="cls-2" cx="51.67" cy="4.11" r="4.07"/><circle class="cls-2" cx="28.67" cy="4.11" r="4.11"/><circle class="cls-2" cx="28.67" cy="143.24" r="4.11"/><circle class="cls-2" cx="5.68" cy="4.11" r="4.11"/><circle class="cls-2" cx="5.68" cy="27.29" r="5.68"/><circle class="cls-2" cx="5.68" cy="50.46" r="5.68"/><circle class="cls-2" cx="28.67" cy="27.29" r="5.68"/><circle class="cls-2" cx="28.67" cy="120.05" r="5.68"/><circle class="cls-2" cx="5.68" cy="96.8" r="5.68"/><circle class="cls-2" cx="5.68" cy="73.63" r="5.68"/><circle class="cls-2" cx="5.68" cy="119.98" r="4.9"/><circle class="cls-2" cx="97.67" cy="143.24" r="7.93"/><circle class="cls-2" cx="28.67" cy="96.8" r="7.93"/><circle class="cls-2" cx="28.67" cy="73.66" r="7.93"/><circle class="cls-2" cx="28.67" cy="50.46" r="7.93"/><circle class="cls-2" cx="97.82" cy="50.46" r="7.93"/><circle class="cls-2" cx="74.58" cy="50.46" r="9.19"/><circle class="cls-2" cx="74.58" cy="73.66" r="9.19"/><circle class="cls-2" cx="97.67" cy="73.66" r="9.19"/><circle class="cls-2" cx="74.58" cy="96.8" r="9.19"/><circle class="cls-2" cx="97.67" cy="96.8" r="9.19"/><circle class="cls-2" cx="97.67" cy="119.98" r="9.19"/><circle class="cls-2" cx="74.58" cy="120.05" r="7.93"/><circle class="cls-2" cx="74.67" cy="27.29" r="7.93"/><circle class="cls-2" cx="51.67" cy="27.29" r="7.93"/><circle class="cls-2" cx="51.67" cy="50.46" r="7.93"/><circle class="cls-2" cx="51.67" cy="73.63" r="7.93"/><circle class="cls-2" cx="51.67" cy="96.8" r="7.93"/><circle class="cls-2" cx="120.77" cy="166.32" r="4.07"/><circle class="cls-2" cx="120.77" cy="143.15" r="7.93"/><circle class="cls-2" cx="120.66" cy="119.98" r="7.93"/><circle class="cls-2" cx="120.66" cy="96.8" r="7.93"/><circle class="cls-2" cx="120.66" cy="73.63" r="7.93"/><circle class="cls-2" cx="5.68" cy="166.32" r="3.03"/><circle class="cls-2" cx="5.68" cy="143.15" r="3.03"/><circle class="cls-2" cx="28.67" cy="166.32" r="3.03"/><circle class="cls-2" cx="143.61" cy="166.37" r="4.11"/><circle class="cls-2" cx="143.61" cy="27.25" r="4.11"/><circle class="cls-2" cx="166.6" cy="166.37" r="4.11"/><circle class="cls-2" cx="166.6" cy="143.2" r="5.68"/><circle class="cls-2" cx="166.6" cy="120.02" r="5.68"/><circle class="cls-2" cx="143.61" cy="143.2" r="5.68"/><circle class="cls-2" cx="143.61" cy="50.43" r="5.68"/><circle class="cls-2" cx="166.6" cy="73.68" r="5.68"/><circle class="cls-2" cx="166.6" cy="96.85" r="5.68"/><circle class="cls-2" cx="166.6" cy="50.51" r="4.9"/><circle class="cls-2" cx="143.61" cy="73.68" r="7.93"/><circle class="cls-2" cx="143.61" cy="96.82" r="7.93"/><circle class="cls-2" cx="143.61" cy="120.02" r="7.93"/><circle class="cls-2" cx="166.6" cy="4.16" r="3.03"/><circle class="cls-2" cx="166.6" cy="27.33" r="3.03"/><circle class="cls-2" cx="143.61" cy="4.16" r="3.03"/></g></g></svg>